<?xml version="1.0" encoding="UTF-8" standalone="no"?>
<!DOCTYPE svg PUBLIC "-//W3C//DTD SVG 1.1//EN"
 "http://www.w3.org/Graphics/SVG/1.1/DTD/svg11.dtd">
<!-- Generated by graphviz version 2.44.1 (20200629.0846)
 -->
<!-- Pages: 1 -->
<svg width="1565pt" height="836pt"
 viewBox="0.00 0.00 1564.50 836.00" xmlns="http://www.w3.org/2000/svg" xmlns:xlink="http://www.w3.org/1999/xlink">
<g id="graph0" class="graph" transform="scale(1 1) rotate(0) translate(4 832)">
<polygon fill="white" stroke="transparent" points="-4,4 -4,-832 1560.5,-832 1560.5,4 -4,4"/>
<!-- 4 -->
<g id="node1" class="node">
<title>4</title>
<polygon fill="salmon" stroke="black" points="74,-468 0,-468 0,-432 74,-432 74,-468"/>
<text text-anchor="middle" x="37" y="-446.3" font-family="Courier,monospace" font-size="14.00">(l1,&#45;3)</text>
</g>
<!-- 17 -->
<g id="node14" class="node">
<title>17</title>
<polygon fill="salmon" stroke="blue" stroke-width="4" points="518,-396 452,-396 452,-360 518,-360 518,-396"/>
<text text-anchor="middle" x="485" y="-374.3" font-family="Courier,monospace" font-size="14.00">(l2,0)</text>
</g>
<!-- 4&#45;&gt;17 -->
<g id="edge1" class="edge">
<title>4&#45;&gt;17</title>
<path fill="none" stroke="black" d="M74.19,-434.47C77.15,-433.55 80.11,-432.72 83,-432 208.52,-400.94 360.88,-387.17 436.94,-381.86"/>
<polygon fill="black" stroke="black" points="437.36,-387.1 451.97,-380.86 436.66,-376.62 437.36,-387.1"/>
</g>
<!-- 5 -->
<g id="node2" class="node">
<title>5</title>
<polygon fill="salmon" stroke="black" points="350,-828 276,-828 276,-792 350,-792 350,-828"/>
<text text-anchor="middle" x="313" y="-806.3" font-family="Courier,monospace" font-size="14.00">(l2,&#45;3)</text>
</g>
<!-- 6 -->
<g id="node3" class="node">
<title>6</title>
<polygon fill="salmon" stroke="black" points="350,-756 276,-756 276,-720 350,-720 350,-756"/>
<text text-anchor="middle" x="313" y="-734.3" font-family="Courier,monospace" font-size="14.00">(l3,&#45;3)</text>
</g>
<!-- 5&#45;&gt;6 -->
<g id="edge2" class="edge">
<title>5&#45;&gt;6</title>
<path fill="none" stroke="black" d="M313,-791.7C313,-785.51 313,-778.32 313,-771.28"/>
<polygon fill="black" stroke="black" points="318.25,-771.1 313,-756.1 307.75,-771.1 318.25,-771.1"/>
</g>
<!-- 9 -->
<g id="node6" class="node">
<title>9</title>
<polygon fill="salmon" stroke="black" points="350,-684 276,-684 276,-648 350,-648 350,-684"/>
<text text-anchor="middle" x="313" y="-662.3" font-family="Courier,monospace" font-size="14.00">(l2,&#45;2)</text>
</g>
<!-- 6&#45;&gt;9 -->
<g id="edge3" class="edge">
<title>6&#45;&gt;9</title>
<path fill="none" stroke="black" d="M313,-719.7C313,-713.51 313,-706.32 313,-699.28"/>
<polygon fill="black" stroke="black" points="318.25,-699.1 313,-684.1 307.75,-699.1 318.25,-699.1"/>
</g>
<!-- 7 -->
<g id="node4" class="node">
<title>7</title>
<polygon fill="salmon" stroke="black" points="459.5,-828 368.5,-828 368.5,-792 459.5,-792 459.5,-828"/>
<text text-anchor="middle" x="414" y="-806.3" font-family="Courier,monospace" font-size="14.00">(Done,&#45;3)</text>
</g>
<!-- 7&#45;&gt;7 -->
<g id="edge4" class="edge">
<title>7&#45;&gt;7</title>
<path fill="none" stroke="black" d="M459.66,-823.17C469.97,-821.98 477.5,-817.59 477.5,-810 477.5,-806.8 476.16,-804.16 473.84,-802.1"/>
<polygon fill="black" stroke="black" points="475.55,-797.14 459.66,-796.83 471.89,-806.98 475.55,-797.14"/>
</g>
<!-- 8 -->
<g id="node5" class="node">
<title>8</title>
<polygon fill="salmon" stroke="black" points="166,-468 92,-468 92,-432 166,-432 166,-468"/>
<text text-anchor="middle" x="129" y="-446.3" font-family="Courier,monospace" font-size="14.00">(l1,&#45;2)</text>
</g>
<!-- 8&#45;&gt;17 -->
<g id="edge5" class="edge">
<title>8&#45;&gt;17</title>
<path fill="none" stroke="black" d="M166.22,-434.59C169.17,-433.65 172.12,-432.77 175,-432 266.21,-407.57 375.67,-391.96 437.09,-384.4"/>
<polygon fill="black" stroke="black" points="437.72,-389.61 451.99,-382.61 436.47,-379.19 437.72,-389.61"/>
</g>
<!-- 10 -->
<g id="node7" class="node">
<title>10</title>
<polygon fill="salmon" stroke="black" points="350,-612 276,-612 276,-576 350,-576 350,-612"/>
<text text-anchor="middle" x="313" y="-590.3" font-family="Courier,monospace" font-size="14.00">(l3,&#45;2)</text>
</g>
<!-- 9&#45;&gt;10 -->
<g id="edge6" class="edge">
<title>9&#45;&gt;10</title>
<path fill="none" stroke="black" d="M313,-647.7C313,-641.51 313,-634.32 313,-627.28"/>
<polygon fill="black" stroke="black" points="318.25,-627.1 313,-612.1 307.75,-627.1 318.25,-627.1"/>
</g>
<!-- 13 -->
<g id="node10" class="node">
<title>13</title>
<polygon fill="salmon" stroke="black" points="350,-540 276,-540 276,-504 350,-504 350,-540"/>
<text text-anchor="middle" x="313" y="-518.3" font-family="Courier,monospace" font-size="14.00">(l2,&#45;1)</text>
</g>
<!-- 10&#45;&gt;13 -->
<g id="edge7" class="edge">
<title>10&#45;&gt;13</title>
<path fill="none" stroke="black" d="M313,-575.7C313,-569.51 313,-562.32 313,-555.28"/>
<polygon fill="black" stroke="black" points="318.25,-555.1 313,-540.1 307.75,-555.1 318.25,-555.1"/>
</g>
<!-- 11 -->
<g id="node8" class="node">
<title>11</title>
<polygon fill="salmon" stroke="black" points="586.5,-828 495.5,-828 495.5,-792 586.5,-792 586.5,-828"/>
<text text-anchor="middle" x="541" y="-806.3" font-family="Courier,monospace" font-size="14.00">(Done,&#45;2)</text>
</g>
<!-- 11&#45;&gt;11 -->
<g id="edge8" class="edge">
<title>11&#45;&gt;11</title>
<path fill="none" stroke="black" d="M586.66,-823.17C596.97,-821.98 604.5,-817.59 604.5,-810 604.5,-806.8 603.16,-804.16 600.84,-802.1"/>
<polygon fill="black" stroke="black" points="602.55,-797.14 586.66,-796.83 598.89,-806.98 602.55,-797.14"/>
</g>
<!-- 12 -->
<g id="node9" class="node">
<title>12</title>
<polygon fill="salmon" stroke="black" points="258,-468 184,-468 184,-432 258,-432 258,-468"/>
<text text-anchor="middle" x="221" y="-446.3" font-family="Courier,monospace" font-size="14.00">(l1,&#45;1)</text>
</g>
<!-- 12&#45;&gt;17 -->
<g id="edge9" class="edge">
<title>12&#45;&gt;17</title>
<path fill="none" stroke="black" d="M258.03,-434.9C261.05,-433.87 264.07,-432.89 267,-432 324.82,-414.35 392.66,-398.62 437.11,-388.97"/>
<polygon fill="black" stroke="black" points="438.24,-394.1 451.81,-385.82 436.04,-383.83 438.24,-394.1"/>
</g>
<!-- 14 -->
<g id="node11" class="node">
<title>14</title>
<polygon fill="salmon" stroke="black" points="350,-468 276,-468 276,-432 350,-432 350,-468"/>
<text text-anchor="middle" x="313" y="-446.3" font-family="Courier,monospace" font-size="14.00">(l3,&#45;1)</text>
</g>
<!-- 13&#45;&gt;14 -->
<g id="edge10" class="edge">
<title>13&#45;&gt;14</title>
<path fill="none" stroke="black" d="M313,-503.7C313,-497.51 313,-490.32 313,-483.28"/>
<polygon fill="black" stroke="black" points="318.25,-483.1 313,-468.1 307.75,-483.1 318.25,-483.1"/>
</g>
<!-- 14&#45;&gt;17 -->
<g id="edge11" class="edge">
<title>14&#45;&gt;17</title>
<path fill="none" stroke="black" d="M350.32,-433.81C375.95,-423.38 410.18,-409.45 437.71,-398.25"/>
<polygon fill="black" stroke="black" points="439.91,-403.02 451.82,-392.5 435.95,-393.29 439.91,-403.02"/>
</g>
<!-- 15 -->
<g id="node12" class="node">
<title>15</title>
<polygon fill="salmon" stroke="black" points="713.5,-828 622.5,-828 622.5,-792 713.5,-792 713.5,-828"/>
<text text-anchor="middle" x="668" y="-806.3" font-family="Courier,monospace" font-size="14.00">(Done,&#45;1)</text>
</g>
<!-- 15&#45;&gt;15 -->
<g id="edge12" class="edge">
<title>15&#45;&gt;15</title>
<path fill="none" stroke="black" d="M713.66,-823.17C723.97,-821.98 731.5,-817.59 731.5,-810 731.5,-806.8 730.16,-804.16 727.84,-802.1"/>
<polygon fill="black" stroke="black" points="729.55,-797.14 713.66,-796.83 725.89,-806.98 729.55,-797.14"/>
</g>
<!-- 16 -->
<g id="node13" class="node">
<title>16</title>
<polygon fill="salmon" stroke="blue" stroke-width="4" points="434,-468 368,-468 368,-432 434,-432 434,-468"/>
<text text-anchor="middle" x="401" y="-446.3" font-family="Courier,monospace" font-size="14.00">(l1,0)</text>
</g>
<!-- 16&#45;&gt;17 -->
<g id="edge13" class="edge">
<title>16&#45;&gt;17</title>
<path fill="none" stroke="black" d="M421.76,-431.7C431.12,-423.9 442.39,-414.51 452.81,-405.83"/>
<polygon fill="black" stroke="black" points="456.31,-409.74 464.47,-396.1 449.59,-401.67 456.31,-409.74"/>
</g>
<!-- 18 -->
<g id="node15" class="node">
<title>18</title>
<polygon fill="salmon" stroke="blue" stroke-width="4" points="518,-324 452,-324 452,-288 518,-288 518,-324"/>
<text text-anchor="middle" x="485" y="-302.3" font-family="Courier,monospace" font-size="14.00">(l3,0)</text>
</g>
<!-- 17&#45;&gt;18 -->
<g id="edge14" class="edge">
<title>17&#45;&gt;18</title>
<path fill="none" stroke="black" d="M485,-359.7C485,-353.51 485,-346.32 485,-339.28"/>
<polygon fill="black" stroke="black" points="490.25,-339.1 485,-324.1 479.75,-339.1 490.25,-339.1"/>
</g>
<!-- 21 -->
<g id="node18" class="node">
<title>21</title>
<polygon fill="salmon" stroke="blue" stroke-width="4" points="518,-252 452,-252 452,-216 518,-216 518,-252"/>
<text text-anchor="middle" x="485" y="-230.3" font-family="Courier,monospace" font-size="14.00">(l2,1)</text>
</g>
<!-- 18&#45;&gt;21 -->
<g id="edge15" class="edge">
<title>18&#45;&gt;21</title>
<path fill="none" stroke="black" d="M485,-287.7C485,-281.51 485,-274.32 485,-267.28"/>
<polygon fill="black" stroke="black" points="490.25,-267.1 485,-252.1 479.75,-267.1 490.25,-267.1"/>
</g>
<!-- 19 -->
<g id="node16" class="node">
<title>19</title>
<polygon fill="salmon" stroke="black" points="832.5,-828 749.5,-828 749.5,-792 832.5,-792 832.5,-828"/>
<text text-anchor="middle" x="791" y="-806.3" font-family="Courier,monospace" font-size="14.00">(Done,0)</text>
</g>
<!-- 19&#45;&gt;19 -->
<g id="edge16" class="edge">
<title>19&#45;&gt;19</title>
<path fill="none" stroke="black" d="M832.71,-823.29C842.91,-822.3 850.5,-817.88 850.5,-810 850.5,-806.68 849.15,-803.97 846.82,-801.87"/>
<polygon fill="black" stroke="black" points="848.6,-796.93 832.71,-796.71 844.99,-806.79 848.6,-796.93"/>
</g>
<!-- 20 -->
<g id="node17" class="node">
<title>20</title>
<polygon fill="salmon" stroke="black" points="518,-468 452,-468 452,-432 518,-432 518,-468"/>
<text text-anchor="middle" x="485" y="-446.3" font-family="Courier,monospace" font-size="14.00">(l1,1)</text>
</g>
<!-- 20&#45;&gt;17 -->
<g id="edge17" class="edge">
<title>20&#45;&gt;17</title>
<path fill="none" stroke="black" d="M485,-431.7C485,-425.51 485,-418.32 485,-411.28"/>
<polygon fill="black" stroke="black" points="490.25,-411.1 485,-396.1 479.75,-411.1 490.25,-411.1"/>
</g>
<!-- 22 -->
<g id="node19" class="node">
<title>22</title>
<polygon fill="salmon" stroke="blue" stroke-width="4" points="518,-180 452,-180 452,-144 518,-144 518,-180"/>
<text text-anchor="middle" x="485" y="-158.3" font-family="Courier,monospace" font-size="14.00">(l3,1)</text>
</g>
<!-- 21&#45;&gt;22 -->
<g id="edge18" class="edge">
<title>21&#45;&gt;22</title>
<path fill="none" stroke="black" d="M485,-215.7C485,-209.51 485,-202.32 485,-195.28"/>
<polygon fill="black" stroke="black" points="490.25,-195.1 485,-180.1 479.75,-195.1 490.25,-195.1"/>
</g>
<!-- 25 -->
<g id="node22" class="node">
<title>25</title>
<polygon fill="salmon" stroke="blue" stroke-width="4" points="518,-108 452,-108 452,-72 518,-72 518,-108"/>
<text text-anchor="middle" x="485" y="-86.3" font-family="Courier,monospace" font-size="14.00">(l2,2)</text>
</g>
<!-- 22&#45;&gt;25 -->
<g id="edge19" class="edge">
<title>22&#45;&gt;25</title>
<path fill="none" stroke="black" d="M485,-143.7C485,-137.51 485,-130.32 485,-123.28"/>
<polygon fill="black" stroke="black" points="490.25,-123.1 485,-108.1 479.75,-123.1 490.25,-123.1"/>
</g>
<!-- 23 -->
<g id="node20" class="node">
<title>23</title>
<polygon fill="salmon" stroke="black" points="951.5,-828 868.5,-828 868.5,-792 951.5,-792 951.5,-828"/>
<text text-anchor="middle" x="910" y="-806.3" font-family="Courier,monospace" font-size="14.00">(Done,1)</text>
</g>
<!-- 23&#45;&gt;23 -->
<g id="edge20" class="edge">
<title>23&#45;&gt;23</title>
<path fill="none" stroke="black" d="M951.71,-823.29C961.91,-822.3 969.5,-817.88 969.5,-810 969.5,-806.68 968.15,-803.97 965.82,-801.87"/>
<polygon fill="black" stroke="black" points="967.6,-796.93 951.71,-796.71 963.99,-806.79 967.6,-796.93"/>
</g>
<!-- 24 -->
<g id="node21" class="node">
<title>24</title>
<polygon fill="salmon" stroke="black" points="602,-468 536,-468 536,-432 602,-432 602,-468"/>
<text text-anchor="middle" x="569" y="-446.3" font-family="Courier,monospace" font-size="14.00">(l1,2)</text>
</g>
<!-- 24&#45;&gt;17 -->
<g id="edge21" class="edge">
<title>24&#45;&gt;17</title>
<path fill="none" stroke="black" d="M548.24,-431.7C538.88,-423.9 527.61,-414.51 517.19,-405.83"/>
<polygon fill="black" stroke="black" points="520.41,-401.67 505.53,-396.1 513.69,-409.74 520.41,-401.67"/>
</g>
<!-- 27 -->
<g id="node24" class="node">
<title>27</title>
<polygon fill="salmon" stroke="blue" stroke-width="4" points="526.5,-36 443.5,-36 443.5,0 526.5,0 526.5,-36"/>
<text text-anchor="middle" x="485" y="-14.3" font-family="Courier,monospace" font-size="14.00">(Done,2)</text>
</g>
<!-- 25&#45;&gt;27 -->
<g id="edge22" class="edge">
<title>25&#45;&gt;27</title>
<path fill="none" stroke="black" d="M485,-71.7C485,-65.51 485,-58.32 485,-51.28"/>
<polygon fill="black" stroke="black" points="490.25,-51.1 485,-36.1 479.75,-51.1 490.25,-51.1"/>
</g>
<!-- 26 -->
<g id="node23" class="node">
<title>26</title>
<polygon fill="salmon" stroke="black" points="1054,-828 988,-828 988,-792 1054,-792 1054,-828"/>
<text text-anchor="middle" x="1021" y="-806.3" font-family="Courier,monospace" font-size="14.00">(l3,2)</text>
</g>
<!-- 29 -->
<g id="node26" class="node">
<title>29</title>
<polygon fill="none" stroke="black" points="1054,-756 988,-756 988,-720 1054,-720 1054,-756"/>
<text text-anchor="middle" x="1021" y="-734.3" font-family="Courier,monospace" font-size="14.00">(l2,3)</text>
</g>
<!-- 26&#45;&gt;29 -->
<g id="edge23" class="edge">
<title>26&#45;&gt;29</title>
<path fill="none" stroke="black" d="M1021,-791.7C1021,-785.51 1021,-778.32 1021,-771.28"/>
<polygon fill="black" stroke="black" points="1026.25,-771.1 1021,-756.1 1015.75,-771.1 1026.25,-771.1"/>
</g>
<!-- 27&#45;&gt;27 -->
<g id="edge24" class="edge">
<title>27&#45;&gt;27</title>
<path fill="none" stroke="black" d="M526.71,-31.29C536.91,-30.3 544.5,-25.88 544.5,-18 544.5,-14.68 543.15,-11.97 540.82,-9.87"/>
<polygon fill="black" stroke="black" points="542.6,-4.93 526.71,-4.71 538.99,-14.79 542.6,-4.93"/>
</g>
<!-- 28 -->
<g id="node25" class="node">
<title>28</title>
<polygon fill="none" stroke="black" points="686,-468 620,-468 620,-432 686,-432 686,-468"/>
<text text-anchor="middle" x="653" y="-446.3" font-family="Courier,monospace" font-size="14.00">(l1,3)</text>
</g>
<!-- 28&#45;&gt;17 -->
<g id="edge25" class="edge">
<title>28&#45;&gt;17</title>
<path fill="none" stroke="black" d="M619.81,-435.17C594.73,-424.72 559.97,-410.24 532.03,-398.59"/>
<polygon fill="black" stroke="black" points="533.99,-393.72 518.12,-392.8 529.95,-403.42 533.99,-393.72"/>
</g>
<!-- 31 -->
<g id="node28" class="node">
<title>31</title>
<polygon fill="none" stroke="black" points="1062.5,-684 979.5,-684 979.5,-648 1062.5,-648 1062.5,-684"/>
<text text-anchor="middle" x="1021" y="-662.3" font-family="Courier,monospace" font-size="14.00">(Done,3)</text>
</g>
<!-- 29&#45;&gt;31 -->
<g id="edge26" class="edge">
<title>29&#45;&gt;31</title>
<path fill="none" stroke="black" d="M1021,-719.7C1021,-713.51 1021,-706.32 1021,-699.28"/>
<polygon fill="black" stroke="black" points="1026.25,-699.1 1021,-684.1 1015.75,-699.1 1026.25,-699.1"/>
</g>
<!-- 30 -->
<g id="node27" class="node">
<title>30</title>
<polygon fill="none" stroke="black" points="1173,-828 1107,-828 1107,-792 1173,-792 1173,-828"/>
<text text-anchor="middle" x="1140" y="-806.3" font-family="Courier,monospace" font-size="14.00">(l3,3)</text>
</g>
<!-- 33 -->
<g id="node30" class="node">
<title>33</title>
<polygon fill="none" stroke="black" points="1173,-756 1107,-756 1107,-720 1173,-720 1173,-756"/>
<text text-anchor="middle" x="1140" y="-734.3" font-family="Courier,monospace" font-size="14.00">(l2,4)</text>
</g>
<!-- 30&#45;&gt;33 -->
<g id="edge27" class="edge">
<title>30&#45;&gt;33</title>
<path fill="none" stroke="black" d="M1140,-791.7C1140,-785.51 1140,-778.32 1140,-771.28"/>
<polygon fill="black" stroke="black" points="1145.25,-771.1 1140,-756.1 1134.75,-771.1 1145.25,-771.1"/>
</g>
<!-- 31&#45;&gt;31 -->
<g id="edge28" class="edge">
<title>31&#45;&gt;31</title>
<path fill="none" stroke="black" d="M1062.71,-679.29C1072.91,-678.3 1080.5,-673.88 1080.5,-666 1080.5,-662.68 1079.15,-659.97 1076.82,-657.87"/>
<polygon fill="black" stroke="black" points="1078.6,-652.93 1062.71,-652.71 1074.99,-662.79 1078.6,-652.93"/>
</g>
<!-- 32 -->
<g id="node29" class="node">
<title>32</title>
<polygon fill="none" stroke="black" points="770,-468 704,-468 704,-432 770,-432 770,-468"/>
<text text-anchor="middle" x="737" y="-446.3" font-family="Courier,monospace" font-size="14.00">(l1,4)</text>
</g>
<!-- 32&#45;&gt;17 -->
<g id="edge29" class="edge">
<title>32&#45;&gt;17</title>
<path fill="none" stroke="black" d="M703.68,-435.03C700.76,-433.96 697.84,-432.93 695,-432 640.25,-414.1 575.83,-398.65 532.92,-389.12"/>
<polygon fill="black" stroke="black" points="533.91,-383.96 518.14,-385.88 531.67,-394.22 533.91,-383.96"/>
</g>
<!-- 35 -->
<g id="node32" class="node">
<title>35</title>
<polygon fill="none" stroke="black" points="1181.5,-684 1098.5,-684 1098.5,-648 1181.5,-648 1181.5,-684"/>
<text text-anchor="middle" x="1140" y="-662.3" font-family="Courier,monospace" font-size="14.00">(Done,4)</text>
</g>
<!-- 33&#45;&gt;35 -->
<g id="edge30" class="edge">
<title>33&#45;&gt;35</title>
<path fill="none" stroke="black" d="M1140,-719.7C1140,-713.51 1140,-706.32 1140,-699.28"/>
<polygon fill="black" stroke="black" points="1145.25,-699.1 1140,-684.1 1134.75,-699.1 1145.25,-699.1"/>
</g>
<!-- 34 -->
<g id="node31" class="node">
<title>34</title>
<polygon fill="none" stroke="black" points="1292,-828 1226,-828 1226,-792 1292,-792 1292,-828"/>
<text text-anchor="middle" x="1259" y="-806.3" font-family="Courier,monospace" font-size="14.00">(l3,4)</text>
</g>
<!-- 37 -->
<g id="node34" class="node">
<title>37</title>
<polygon fill="none" stroke="black" points="1292,-756 1226,-756 1226,-720 1292,-720 1292,-756"/>
<text text-anchor="middle" x="1259" y="-734.3" font-family="Courier,monospace" font-size="14.00">(l2,5)</text>
</g>
<!-- 34&#45;&gt;37 -->
<g id="edge31" class="edge">
<title>34&#45;&gt;37</title>
<path fill="none" stroke="black" d="M1259,-791.7C1259,-785.51 1259,-778.32 1259,-771.28"/>
<polygon fill="black" stroke="black" points="1264.25,-771.1 1259,-756.1 1253.75,-771.1 1264.25,-771.1"/>
</g>
<!-- 35&#45;&gt;35 -->
<g id="edge32" class="edge">
<title>35&#45;&gt;35</title>
<path fill="none" stroke="black" d="M1181.71,-679.29C1191.91,-678.3 1199.5,-673.88 1199.5,-666 1199.5,-662.68 1198.15,-659.97 1195.82,-657.87"/>
<polygon fill="black" stroke="black" points="1197.6,-652.93 1181.71,-652.71 1193.99,-662.79 1197.6,-652.93"/>
</g>
<!-- 36 -->
<g id="node33" class="node">
<title>36</title>
<polygon fill="none" stroke="black" points="854,-468 788,-468 788,-432 854,-432 854,-468"/>
<text text-anchor="middle" x="821" y="-446.3" font-family="Courier,monospace" font-size="14.00">(l1,5)</text>
</g>
<!-- 36&#45;&gt;17 -->
<g id="edge33" class="edge">
<title>36&#45;&gt;17</title>
<path fill="none" stroke="black" d="M787.75,-434.82C784.82,-433.79 781.87,-432.83 779,-432 694.11,-407.45 591.99,-392.1 533.18,-384.58"/>
<polygon fill="black" stroke="black" points="533.67,-379.35 518.14,-382.71 532.37,-389.77 533.67,-379.35"/>
</g>
<!-- 39 -->
<g id="node36" class="node">
<title>39</title>
<polygon fill="none" stroke="black" points="1300.5,-684 1217.5,-684 1217.5,-648 1300.5,-648 1300.5,-684"/>
<text text-anchor="middle" x="1259" y="-662.3" font-family="Courier,monospace" font-size="14.00">(Done,5)</text>
</g>
<!-- 37&#45;&gt;39 -->
<g id="edge34" class="edge">
<title>37&#45;&gt;39</title>
<path fill="none" stroke="black" d="M1259,-719.7C1259,-713.51 1259,-706.32 1259,-699.28"/>
<polygon fill="black" stroke="black" points="1264.25,-699.1 1259,-684.1 1253.75,-699.1 1264.25,-699.1"/>
</g>
<!-- 38 -->
<g id="node35" class="node">
<title>38</title>
<polygon fill="none" stroke="black" points="1411,-828 1345,-828 1345,-792 1411,-792 1411,-828"/>
<text text-anchor="middle" x="1378" y="-806.3" font-family="Courier,monospace" font-size="14.00">(l3,5)</text>
</g>
<!-- 41 -->
<g id="node38" class="node">
<title>41</title>
<polygon fill="none" stroke="black" points="1411,-756 1345,-756 1345,-720 1411,-720 1411,-756"/>
<text text-anchor="middle" x="1378" y="-734.3" font-family="Courier,monospace" font-size="14.00">(l2,6)</text>
</g>
<!-- 38&#45;&gt;41 -->
<g id="edge35" class="edge">
<title>38&#45;&gt;41</title>
<path fill="none" stroke="black" d="M1378,-791.7C1378,-785.51 1378,-778.32 1378,-771.28"/>
<polygon fill="black" stroke="black" points="1383.25,-771.1 1378,-756.1 1372.75,-771.1 1383.25,-771.1"/>
</g>
<!-- 39&#45;&gt;39 -->
<g id="edge36" class="edge">
<title>39&#45;&gt;39</title>
<path fill="none" stroke="black" d="M1300.71,-679.29C1310.91,-678.3 1318.5,-673.88 1318.5,-666 1318.5,-662.68 1317.15,-659.97 1314.82,-657.87"/>
<polygon fill="black" stroke="black" points="1316.6,-652.93 1300.71,-652.71 1312.99,-662.79 1316.6,-652.93"/>
</g>
<!-- 40 -->
<g id="node37" class="node">
<title>40</title>
<polygon fill="none" stroke="black" points="938,-468 872,-468 872,-432 938,-432 938,-468"/>
<text text-anchor="middle" x="905" y="-446.3" font-family="Courier,monospace" font-size="14.00">(l1,6)</text>
</g>
<!-- 40&#45;&gt;17 -->
<g id="edge37" class="edge">
<title>40&#45;&gt;17</title>
<path fill="none" stroke="black" d="M871.78,-434.7C868.84,-433.69 865.89,-432.77 863,-432 747.11,-400.93 606.07,-387.3 533.42,-381.98"/>
<polygon fill="black" stroke="black" points="533.48,-376.72 518.15,-380.91 532.75,-387.19 533.48,-376.72"/>
</g>
<!-- 43 -->
<g id="node40" class="node">
<title>43</title>
<polygon fill="none" stroke="black" points="1419.5,-684 1336.5,-684 1336.5,-648 1419.5,-648 1419.5,-684"/>
<text text-anchor="middle" x="1378" y="-662.3" font-family="Courier,monospace" font-size="14.00">(Done,6)</text>
</g>
<!-- 41&#45;&gt;43 -->
<g id="edge38" class="edge">
<title>41&#45;&gt;43</title>
<path fill="none" stroke="black" d="M1378,-719.7C1378,-713.51 1378,-706.32 1378,-699.28"/>
<polygon fill="black" stroke="black" points="1383.25,-699.1 1378,-684.1 1372.75,-699.1 1383.25,-699.1"/>
</g>
<!-- 42 -->
<g id="node39" class="node">
<title>42</title>
<polygon fill="none" stroke="black" points="1530,-828 1464,-828 1464,-792 1530,-792 1530,-828"/>
<text text-anchor="middle" x="1497" y="-806.3" font-family="Courier,monospace" font-size="14.00">(l3,6)</text>
</g>
<!-- 44 -->
<g id="node41" class="node">
<title>44</title>
<polygon fill="none" stroke="black" points="1530,-756 1464,-756 1464,-720 1530,-720 1530,-756"/>
<text text-anchor="middle" x="1497" y="-734.3" font-family="Courier,monospace" font-size="14.00">(l2,7)</text>
</g>
<!-- 42&#45;&gt;44 -->
<g id="edge39" class="edge">
<title>42&#45;&gt;44</title>
<path fill="none" stroke="black" d="M1497,-791.7C1497,-785.51 1497,-778.32 1497,-771.28"/>
<polygon fill="black" stroke="black" points="1502.25,-771.1 1497,-756.1 1491.75,-771.1 1502.25,-771.1"/>
</g>
<!-- 43&#45;&gt;43 -->
<g id="edge40" class="edge">
<title>43&#45;&gt;43</title>
<path fill="none" stroke="black" d="M1419.71,-679.29C1429.91,-678.3 1437.5,-673.88 1437.5,-666 1437.5,-662.68 1436.15,-659.97 1433.82,-657.87"/>
<polygon fill="black" stroke="black" points="1435.6,-652.93 1419.71,-652.71 1431.99,-662.79 1435.6,-652.93"/>
</g>
<!-- 45 -->
<g id="node42" class="node">
<title>45</title>
<polygon fill="none" stroke="black" points="1538.5,-684 1455.5,-684 1455.5,-648 1538.5,-648 1538.5,-684"/>
<text text-anchor="middle" x="1497" y="-662.3" font-family="Courier,monospace" font-size="14.00">(Done,7)</text>
</g>
<!-- 44&#45;&gt;45 -->
<g id="edge41" class="edge">
<title>44&#45;&gt;45</title>
<path fill="none" stroke="black" d="M1497,-719.7C1497,-713.51 1497,-706.32 1497,-699.28"/>
<polygon fill="black" stroke="black" points="1502.25,-699.1 1497,-684.1 1491.75,-699.1 1502.25,-699.1"/>
</g>
<!-- 45&#45;&gt;45 -->
<g id="edge42" class="edge">
<title>45&#45;&gt;45</title>
<path fill="none" stroke="black" d="M1538.71,-679.29C1548.91,-678.3 1556.5,-673.88 1556.5,-666 1556.5,-662.68 1555.15,-659.97 1552.82,-657.87"/>
<polygon fill="black" stroke="black" points="1554.6,-652.93 1538.71,-652.71 1550.99,-662.79 1554.6,-652.93"/>
</g>
</g>
</svg>
