<?xml version="1.0" encoding="UTF-8" standalone="no"?>
<!DOCTYPE svg PUBLIC "-//W3C//DTD SVG 1.1//EN"
 "http://www.w3.org/Graphics/SVG/1.1/DTD/svg11.dtd">
<!-- Generated by graphviz version 2.44.1 (20200629.0846)
 -->
<!-- Pages: 1 -->
<svg width="1602pt" height="836pt"
 viewBox="0.00 0.00 1601.59 836.00" xmlns="http://www.w3.org/2000/svg" xmlns:xlink="http://www.w3.org/1999/xlink">
<g id="graph0" class="graph" transform="scale(1 1) rotate(0) translate(4 832)">
<polygon fill="white" stroke="transparent" points="-4,4 -4,-832 1597.59,-832 1597.59,4 -4,4"/>
<!-- 4 -->
<g id="node1" class="node">
<title>4</title>
<ellipse fill="salmon" stroke="black" cx="37.7" cy="-450" rx="37.89" ry="18"/>
<text text-anchor="middle" x="37.7" y="-446.3" font-family="Courier,monospace" font-size="14.00">l1,&#45;3</text>
</g>
<!-- 17 -->
<g id="node14" class="node">
<title>17</title>
<ellipse fill="salmon" stroke="black" cx="487.7" cy="-378" rx="32.49" ry="18"/>
<text text-anchor="middle" x="487.7" y="-374.3" font-family="Courier,monospace" font-size="14.00">l2,0</text>
</g>
<!-- 4&#45;&gt;17 -->
<g id="edge1" class="edge">
<title>4&#45;&gt;17</title>
<path fill="none" stroke="black" d="M65.6,-437.56C71.5,-435.46 77.75,-433.47 83.7,-432 210.48,-400.67 364.51,-386.97 440.55,-381.76"/>
<polygon fill="black" stroke="black" points="440.94,-386.99 455.56,-380.77 440.25,-376.52 440.94,-386.99"/>
</g>
<!-- 5 -->
<g id="node2" class="node">
<title>5</title>
<ellipse fill="salmon" stroke="black" cx="316.7" cy="-810" rx="37.89" ry="18"/>
<text text-anchor="middle" x="316.7" y="-806.3" font-family="Courier,monospace" font-size="14.00">l2,&#45;3</text>
</g>
<!-- 6 -->
<g id="node3" class="node">
<title>6</title>
<ellipse fill="salmon" stroke="black" cx="316.7" cy="-738" rx="37.89" ry="18"/>
<text text-anchor="middle" x="316.7" y="-734.3" font-family="Courier,monospace" font-size="14.00">l3,&#45;3</text>
</g>
<!-- 5&#45;&gt;6 -->
<g id="edge2" class="edge">
<title>5&#45;&gt;6</title>
<path fill="none" stroke="black" d="M316.7,-791.7C316.7,-785.51 316.7,-778.32 316.7,-771.28"/>
<polygon fill="black" stroke="black" points="321.95,-771.1 316.7,-756.1 311.45,-771.1 321.95,-771.1"/>
</g>
<!-- 9 -->
<g id="node6" class="node">
<title>9</title>
<ellipse fill="salmon" stroke="black" cx="316.7" cy="-666" rx="37.89" ry="18"/>
<text text-anchor="middle" x="316.7" y="-662.3" font-family="Courier,monospace" font-size="14.00">l2,&#45;2</text>
</g>
<!-- 6&#45;&gt;9 -->
<g id="edge3" class="edge">
<title>6&#45;&gt;9</title>
<path fill="none" stroke="black" d="M316.7,-719.7C316.7,-713.51 316.7,-706.32 316.7,-699.28"/>
<polygon fill="black" stroke="black" points="321.95,-699.1 316.7,-684.1 311.45,-699.1 321.95,-699.1"/>
</g>
<!-- 7 -->
<g id="node4" class="node">
<title>7</title>
<ellipse fill="salmon" stroke="black" cx="420.7" cy="-810" rx="48.19" ry="18"/>
<text text-anchor="middle" x="420.7" y="-806.3" font-family="Courier,monospace" font-size="14.00">Done,&#45;3</text>
</g>
<!-- 7&#45;&gt;7 -->
<g id="edge4" class="edge">
<title>7&#45;&gt;7</title>
<path fill="none" stroke="black" d="M454.02,-823.03C471.26,-825.03 486.79,-820.69 486.79,-810 486.79,-802.65 479.45,-798.3 469.26,-796.96"/>
<polygon fill="black" stroke="black" points="469.02,-791.71 454.02,-796.97 469.03,-802.21 469.02,-791.71"/>
</g>
<!-- 8 -->
<g id="node5" class="node">
<title>8</title>
<ellipse fill="salmon" stroke="black" cx="130.7" cy="-450" rx="37.89" ry="18"/>
<text text-anchor="middle" x="130.7" y="-446.3" font-family="Courier,monospace" font-size="14.00">l1,&#45;2</text>
</g>
<!-- 8&#45;&gt;17 -->
<g id="edge5" class="edge">
<title>8&#45;&gt;17</title>
<path fill="none" stroke="black" d="M158.65,-437.73C164.55,-435.62 170.77,-433.58 176.7,-432 268.74,-407.38 379.29,-391.75 440.7,-384.25"/>
<polygon fill="black" stroke="black" points="441.67,-389.43 455.94,-382.44 440.42,-379 441.67,-389.43"/>
</g>
<!-- 10 -->
<g id="node7" class="node">
<title>10</title>
<ellipse fill="salmon" stroke="black" cx="316.7" cy="-594" rx="37.89" ry="18"/>
<text text-anchor="middle" x="316.7" y="-590.3" font-family="Courier,monospace" font-size="14.00">l3,&#45;2</text>
</g>
<!-- 9&#45;&gt;10 -->
<g id="edge6" class="edge">
<title>9&#45;&gt;10</title>
<path fill="none" stroke="black" d="M316.7,-647.7C316.7,-641.51 316.7,-634.32 316.7,-627.28"/>
<polygon fill="black" stroke="black" points="321.95,-627.1 316.7,-612.1 311.45,-627.1 321.95,-627.1"/>
</g>
<!-- 13 -->
<g id="node10" class="node">
<title>13</title>
<ellipse fill="salmon" stroke="black" cx="316.7" cy="-522" rx="37.89" ry="18"/>
<text text-anchor="middle" x="316.7" y="-518.3" font-family="Courier,monospace" font-size="14.00">l2,&#45;1</text>
</g>
<!-- 10&#45;&gt;13 -->
<g id="edge7" class="edge">
<title>10&#45;&gt;13</title>
<path fill="none" stroke="black" d="M316.7,-575.7C316.7,-569.51 316.7,-562.32 316.7,-555.28"/>
<polygon fill="black" stroke="black" points="321.95,-555.1 316.7,-540.1 311.45,-555.1 321.95,-555.1"/>
</g>
<!-- 11 -->
<g id="node8" class="node">
<title>11</title>
<ellipse fill="salmon" stroke="black" cx="552.7" cy="-810" rx="48.19" ry="18"/>
<text text-anchor="middle" x="552.7" y="-806.3" font-family="Courier,monospace" font-size="14.00">Done,&#45;2</text>
</g>
<!-- 11&#45;&gt;11 -->
<g id="edge8" class="edge">
<title>11&#45;&gt;11</title>
<path fill="none" stroke="black" d="M586.02,-823.03C603.26,-825.03 618.79,-820.69 618.79,-810 618.79,-802.65 611.45,-798.3 601.26,-796.96"/>
<polygon fill="black" stroke="black" points="601.02,-791.71 586.02,-796.97 601.03,-802.21 601.02,-791.71"/>
</g>
<!-- 12 -->
<g id="node9" class="node">
<title>12</title>
<ellipse fill="salmon" stroke="black" cx="223.7" cy="-450" rx="37.89" ry="18"/>
<text text-anchor="middle" x="223.7" y="-446.3" font-family="Courier,monospace" font-size="14.00">l1,&#45;1</text>
</g>
<!-- 12&#45;&gt;17 -->
<g id="edge9" class="edge">
<title>12&#45;&gt;17</title>
<path fill="none" stroke="black" d="M252.23,-437.87C257.97,-435.8 264,-433.74 269.7,-432 328.88,-413.93 398.57,-397.88 442.93,-388.3"/>
<polygon fill="black" stroke="black" points="444.21,-393.39 457.78,-385.13 442.02,-383.12 444.21,-393.39"/>
</g>
<!-- 14 -->
<g id="node11" class="node">
<title>14</title>
<ellipse fill="salmon" stroke="black" cx="316.7" cy="-450" rx="37.89" ry="18"/>
<text text-anchor="middle" x="316.7" y="-446.3" font-family="Courier,monospace" font-size="14.00">l3,&#45;1</text>
</g>
<!-- 13&#45;&gt;14 -->
<g id="edge10" class="edge">
<title>13&#45;&gt;14</title>
<path fill="none" stroke="black" d="M316.7,-503.7C316.7,-497.51 316.7,-490.32 316.7,-483.28"/>
<polygon fill="black" stroke="black" points="321.95,-483.1 316.7,-468.1 311.45,-483.1 321.95,-483.1"/>
</g>
<!-- 14&#45;&gt;17 -->
<g id="edge11" class="edge">
<title>14&#45;&gt;17</title>
<path fill="none" stroke="black" d="M344.55,-437.6C372.74,-426.06 416.57,-408.12 448.31,-395.12"/>
<polygon fill="black" stroke="black" points="450.47,-399.91 462.37,-389.37 446.49,-390.19 450.47,-399.91"/>
</g>
<!-- 15 -->
<g id="node12" class="node">
<title>15</title>
<ellipse fill="salmon" stroke="black" cx="684.7" cy="-810" rx="48.19" ry="18"/>
<text text-anchor="middle" x="684.7" y="-806.3" font-family="Courier,monospace" font-size="14.00">Done,&#45;1</text>
</g>
<!-- 15&#45;&gt;15 -->
<g id="edge12" class="edge">
<title>15&#45;&gt;15</title>
<path fill="none" stroke="black" d="M718.02,-823.03C735.26,-825.03 750.79,-820.69 750.79,-810 750.79,-802.65 743.45,-798.3 733.26,-796.96"/>
<polygon fill="black" stroke="black" points="733.02,-791.71 718.02,-796.97 733.03,-802.21 733.02,-791.71"/>
</g>
<!-- 16 -->
<g id="node13" class="node">
<title>16</title>
<ellipse fill="salmon" stroke="black" cx="404.7" cy="-450" rx="32.49" ry="18"/>
<text text-anchor="middle" x="404.7" y="-446.3" font-family="Courier,monospace" font-size="14.00">l1,0</text>
</g>
<!-- 16&#45;&gt;17 -->
<g id="edge13" class="edge">
<title>16&#45;&gt;17</title>
<path fill="none" stroke="black" d="M421.89,-434.5C432.58,-425.49 446.58,-413.68 458.92,-403.27"/>
<polygon fill="black" stroke="black" points="462.44,-407.17 470.52,-393.49 455.67,-399.14 462.44,-407.17"/>
</g>
<!-- 18 -->
<g id="node15" class="node">
<title>18</title>
<ellipse fill="salmon" stroke="black" cx="487.7" cy="-306" rx="32.49" ry="18"/>
<text text-anchor="middle" x="487.7" y="-302.3" font-family="Courier,monospace" font-size="14.00">l3,0</text>
</g>
<!-- 17&#45;&gt;18 -->
<g id="edge14" class="edge">
<title>17&#45;&gt;18</title>
<path fill="none" stroke="black" d="M487.7,-359.7C487.7,-353.51 487.7,-346.32 487.7,-339.28"/>
<polygon fill="black" stroke="black" points="492.95,-339.1 487.7,-324.1 482.45,-339.1 492.95,-339.1"/>
</g>
<!-- 21 -->
<g id="node18" class="node">
<title>21</title>
<ellipse fill="salmon" stroke="black" cx="487.7" cy="-234" rx="32.49" ry="18"/>
<text text-anchor="middle" x="487.7" y="-230.3" font-family="Courier,monospace" font-size="14.00">l2,1</text>
</g>
<!-- 18&#45;&gt;21 -->
<g id="edge15" class="edge">
<title>18&#45;&gt;21</title>
<path fill="none" stroke="black" d="M487.7,-287.7C487.7,-281.51 487.7,-274.32 487.7,-267.28"/>
<polygon fill="black" stroke="black" points="492.95,-267.1 487.7,-252.1 482.45,-267.1 492.95,-267.1"/>
</g>
<!-- 19 -->
<g id="node16" class="node">
<title>19</title>
<ellipse fill="salmon" stroke="black" cx="811.7" cy="-810" rx="42.79" ry="18"/>
<text text-anchor="middle" x="811.7" y="-806.3" font-family="Courier,monospace" font-size="14.00">Done,0</text>
</g>
<!-- 19&#45;&gt;19 -->
<g id="edge16" class="edge">
<title>19&#45;&gt;19</title>
<path fill="none" stroke="black" d="M841.78,-822.94C857.9,-825.14 872.59,-820.83 872.59,-810 872.59,-802.81 866.11,-798.49 857.04,-797.05"/>
<polygon fill="black" stroke="black" points="856.77,-791.8 841.78,-797.06 856.78,-802.3 856.77,-791.8"/>
</g>
<!-- 20 -->
<g id="node17" class="node">
<title>20</title>
<ellipse fill="salmon" stroke="black" cx="487.7" cy="-450" rx="32.49" ry="18"/>
<text text-anchor="middle" x="487.7" y="-446.3" font-family="Courier,monospace" font-size="14.00">l1,1</text>
</g>
<!-- 20&#45;&gt;17 -->
<g id="edge17" class="edge">
<title>20&#45;&gt;17</title>
<path fill="none" stroke="black" d="M487.7,-431.7C487.7,-425.51 487.7,-418.32 487.7,-411.28"/>
<polygon fill="black" stroke="black" points="492.95,-411.1 487.7,-396.1 482.45,-411.1 492.95,-411.1"/>
</g>
<!-- 22 -->
<g id="node19" class="node">
<title>22</title>
<ellipse fill="salmon" stroke="black" cx="487.7" cy="-162" rx="32.49" ry="18"/>
<text text-anchor="middle" x="487.7" y="-158.3" font-family="Courier,monospace" font-size="14.00">l3,1</text>
</g>
<!-- 21&#45;&gt;22 -->
<g id="edge18" class="edge">
<title>21&#45;&gt;22</title>
<path fill="none" stroke="black" d="M487.7,-215.7C487.7,-209.51 487.7,-202.32 487.7,-195.28"/>
<polygon fill="black" stroke="black" points="492.95,-195.1 487.7,-180.1 482.45,-195.1 492.95,-195.1"/>
</g>
<!-- 25 -->
<g id="node22" class="node">
<title>25</title>
<ellipse fill="salmon" stroke="black" cx="487.7" cy="-90" rx="32.49" ry="18"/>
<text text-anchor="middle" x="487.7" y="-86.3" font-family="Courier,monospace" font-size="14.00">l2,2</text>
</g>
<!-- 22&#45;&gt;25 -->
<g id="edge19" class="edge">
<title>22&#45;&gt;25</title>
<path fill="none" stroke="black" d="M487.7,-143.7C487.7,-137.51 487.7,-130.32 487.7,-123.28"/>
<polygon fill="black" stroke="black" points="492.95,-123.1 487.7,-108.1 482.45,-123.1 492.95,-123.1"/>
</g>
<!-- 23 -->
<g id="node20" class="node">
<title>23</title>
<ellipse fill="salmon" stroke="black" cx="933.7" cy="-810" rx="42.79" ry="18"/>
<text text-anchor="middle" x="933.7" y="-806.3" font-family="Courier,monospace" font-size="14.00">Done,1</text>
</g>
<!-- 23&#45;&gt;23 -->
<g id="edge20" class="edge">
<title>23&#45;&gt;23</title>
<path fill="none" stroke="black" d="M963.78,-822.94C979.9,-825.14 994.59,-820.83 994.59,-810 994.59,-802.81 988.11,-798.49 979.04,-797.05"/>
<polygon fill="black" stroke="black" points="978.77,-791.8 963.78,-797.06 978.78,-802.3 978.77,-791.8"/>
</g>
<!-- 24 -->
<g id="node21" class="node">
<title>24</title>
<ellipse fill="salmon" stroke="black" cx="570.7" cy="-450" rx="32.49" ry="18"/>
<text text-anchor="middle" x="570.7" y="-446.3" font-family="Courier,monospace" font-size="14.00">l1,2</text>
</g>
<!-- 24&#45;&gt;17 -->
<g id="edge21" class="edge">
<title>24&#45;&gt;17</title>
<path fill="none" stroke="black" d="M553.5,-434.5C542.82,-425.49 528.81,-413.68 516.47,-403.27"/>
<polygon fill="black" stroke="black" points="519.72,-399.14 504.87,-393.49 512.95,-407.17 519.72,-399.14"/>
</g>
<!-- 27 -->
<g id="node24" class="node">
<title>27</title>
<ellipse fill="salmon" stroke="black" cx="487.7" cy="-18" rx="42.79" ry="18"/>
<text text-anchor="middle" x="487.7" y="-14.3" font-family="Courier,monospace" font-size="14.00">Done,2</text>
</g>
<!-- 25&#45;&gt;27 -->
<g id="edge22" class="edge">
<title>25&#45;&gt;27</title>
<path fill="none" stroke="black" d="M487.7,-71.7C487.7,-65.51 487.7,-58.32 487.7,-51.28"/>
<polygon fill="black" stroke="black" points="492.95,-51.1 487.7,-36.1 482.45,-51.1 492.95,-51.1"/>
</g>
<!-- 26 -->
<g id="node23" class="node">
<title>26</title>
<ellipse fill="salmon" stroke="black" cx="1044.7" cy="-810" rx="32.49" ry="18"/>
<text text-anchor="middle" x="1044.7" y="-806.3" font-family="Courier,monospace" font-size="14.00">l3,2</text>
</g>
<!-- 29 -->
<g id="node26" class="node">
<title>29</title>
<ellipse fill="gray" stroke="black" cx="1044.7" cy="-738" rx="32.49" ry="18"/>
<text text-anchor="middle" x="1044.7" y="-734.3" font-family="Courier,monospace" font-size="14.00">l2,3</text>
</g>
<!-- 26&#45;&gt;29 -->
<g id="edge23" class="edge">
<title>26&#45;&gt;29</title>
<path fill="none" stroke="black" d="M1044.7,-791.7C1044.7,-785.51 1044.7,-778.32 1044.7,-771.28"/>
<polygon fill="black" stroke="black" points="1049.95,-771.1 1044.7,-756.1 1039.45,-771.1 1049.95,-771.1"/>
</g>
<!-- 27&#45;&gt;27 -->
<g id="edge24" class="edge">
<title>27&#45;&gt;27</title>
<path fill="none" stroke="black" d="M517.78,-30.94C533.9,-33.14 548.59,-28.83 548.59,-18 548.59,-10.81 542.11,-6.49 533.04,-5.05"/>
<polygon fill="black" stroke="black" points="532.77,0.2 517.78,-5.06 532.78,-10.3 532.77,0.2"/>
</g>
<!-- 28 -->
<g id="node25" class="node">
<title>28</title>
<ellipse fill="gray" stroke="black" cx="653.7" cy="-450" rx="32.49" ry="18"/>
<text text-anchor="middle" x="653.7" y="-446.3" font-family="Courier,monospace" font-size="14.00">l1,3</text>
</g>
<!-- 28&#45;&gt;17 -->
<g id="edge25" class="edge">
<title>28&#45;&gt;17</title>
<path fill="none" stroke="black" d="M628.48,-438.37C601.47,-426.98 558.25,-408.75 526.81,-395.49"/>
<polygon fill="black" stroke="black" points="528.73,-390.61 512.87,-389.62 524.65,-400.28 528.73,-390.61"/>
</g>
<!-- 31 -->
<g id="node28" class="node">
<title>31</title>
<ellipse fill="gray" stroke="black" cx="1044.7" cy="-666" rx="42.79" ry="18"/>
<text text-anchor="middle" x="1044.7" y="-662.3" font-family="Courier,monospace" font-size="14.00">Done,3</text>
</g>
<!-- 29&#45;&gt;31 -->
<g id="edge26" class="edge">
<title>29&#45;&gt;31</title>
<path fill="none" stroke="black" d="M1044.7,-719.7C1044.7,-713.51 1044.7,-706.32 1044.7,-699.28"/>
<polygon fill="black" stroke="black" points="1049.95,-699.1 1044.7,-684.1 1039.45,-699.1 1049.95,-699.1"/>
</g>
<!-- 30 -->
<g id="node27" class="node">
<title>30</title>
<ellipse fill="gray" stroke="black" cx="1166.7" cy="-810" rx="32.49" ry="18"/>
<text text-anchor="middle" x="1166.7" y="-806.3" font-family="Courier,monospace" font-size="14.00">l3,3</text>
</g>
<!-- 33 -->
<g id="node30" class="node">
<title>33</title>
<ellipse fill="gray" stroke="black" cx="1166.7" cy="-738" rx="32.49" ry="18"/>
<text text-anchor="middle" x="1166.7" y="-734.3" font-family="Courier,monospace" font-size="14.00">l2,4</text>
</g>
<!-- 30&#45;&gt;33 -->
<g id="edge27" class="edge">
<title>30&#45;&gt;33</title>
<path fill="none" stroke="black" d="M1166.7,-791.7C1166.7,-785.51 1166.7,-778.32 1166.7,-771.28"/>
<polygon fill="black" stroke="black" points="1171.95,-771.1 1166.7,-756.1 1161.45,-771.1 1171.95,-771.1"/>
</g>
<!-- 31&#45;&gt;31 -->
<g id="edge28" class="edge">
<title>31&#45;&gt;31</title>
<path fill="none" stroke="black" d="M1074.78,-678.94C1090.9,-681.14 1105.59,-676.83 1105.59,-666 1105.59,-658.81 1099.11,-654.49 1090.04,-653.05"/>
<polygon fill="black" stroke="black" points="1089.77,-647.8 1074.78,-653.06 1089.78,-658.3 1089.77,-647.8"/>
</g>
<!-- 32 -->
<g id="node29" class="node">
<title>32</title>
<ellipse fill="gray" stroke="black" cx="736.7" cy="-450" rx="32.49" ry="18"/>
<text text-anchor="middle" x="736.7" y="-446.3" font-family="Courier,monospace" font-size="14.00">l1,4</text>
</g>
<!-- 32&#45;&gt;17 -->
<g id="edge29" class="edge">
<title>32&#45;&gt;17</title>
<path fill="none" stroke="black" d="M711.58,-438.2C706.07,-436.01 700.23,-433.82 694.7,-432 639.58,-413.88 574.54,-398.12 532.28,-388.6"/>
<polygon fill="black" stroke="black" points="533.32,-383.45 517.54,-385.32 531.04,-393.7 533.32,-383.45"/>
</g>
<!-- 35 -->
<g id="node32" class="node">
<title>35</title>
<ellipse fill="gray" stroke="black" cx="1166.7" cy="-666" rx="42.79" ry="18"/>
<text text-anchor="middle" x="1166.7" y="-662.3" font-family="Courier,monospace" font-size="14.00">Done,4</text>
</g>
<!-- 33&#45;&gt;35 -->
<g id="edge30" class="edge">
<title>33&#45;&gt;35</title>
<path fill="none" stroke="black" d="M1166.7,-719.7C1166.7,-713.51 1166.7,-706.32 1166.7,-699.28"/>
<polygon fill="black" stroke="black" points="1171.95,-699.1 1166.7,-684.1 1161.45,-699.1 1171.95,-699.1"/>
</g>
<!-- 34 -->
<g id="node31" class="node">
<title>34</title>
<ellipse fill="gray" stroke="black" cx="1288.7" cy="-810" rx="32.49" ry="18"/>
<text text-anchor="middle" x="1288.7" y="-806.3" font-family="Courier,monospace" font-size="14.00">l3,4</text>
</g>
<!-- 37 -->
<g id="node34" class="node">
<title>37</title>
<ellipse fill="gray" stroke="black" cx="1288.7" cy="-738" rx="32.49" ry="18"/>
<text text-anchor="middle" x="1288.7" y="-734.3" font-family="Courier,monospace" font-size="14.00">l2,5</text>
</g>
<!-- 34&#45;&gt;37 -->
<g id="edge31" class="edge">
<title>34&#45;&gt;37</title>
<path fill="none" stroke="black" d="M1288.7,-791.7C1288.7,-785.51 1288.7,-778.32 1288.7,-771.28"/>
<polygon fill="black" stroke="black" points="1293.95,-771.1 1288.7,-756.1 1283.45,-771.1 1293.95,-771.1"/>
</g>
<!-- 35&#45;&gt;35 -->
<g id="edge32" class="edge">
<title>35&#45;&gt;35</title>
<path fill="none" stroke="black" d="M1196.78,-678.94C1212.9,-681.14 1227.59,-676.83 1227.59,-666 1227.59,-658.81 1221.11,-654.49 1212.04,-653.05"/>
<polygon fill="black" stroke="black" points="1211.77,-647.8 1196.78,-653.06 1211.78,-658.3 1211.77,-647.8"/>
</g>
<!-- 36 -->
<g id="node33" class="node">
<title>36</title>
<ellipse fill="gray" stroke="black" cx="819.7" cy="-450" rx="32.49" ry="18"/>
<text text-anchor="middle" x="819.7" y="-446.3" font-family="Courier,monospace" font-size="14.00">l1,5</text>
</g>
<!-- 36&#45;&gt;17 -->
<g id="edge33" class="edge">
<title>36&#45;&gt;17</title>
<path fill="none" stroke="black" d="M795.12,-438.08C789.47,-435.84 783.44,-433.67 777.7,-432 693.69,-407.6 592.58,-392.15 534.65,-384.58"/>
<polygon fill="black" stroke="black" points="535.05,-379.34 519.51,-382.66 533.73,-389.76 535.05,-379.34"/>
</g>
<!-- 39 -->
<g id="node36" class="node">
<title>39</title>
<ellipse fill="gray" stroke="black" cx="1288.7" cy="-666" rx="42.79" ry="18"/>
<text text-anchor="middle" x="1288.7" y="-662.3" font-family="Courier,monospace" font-size="14.00">Done,5</text>
</g>
<!-- 37&#45;&gt;39 -->
<g id="edge34" class="edge">
<title>37&#45;&gt;39</title>
<path fill="none" stroke="black" d="M1288.7,-719.7C1288.7,-713.51 1288.7,-706.32 1288.7,-699.28"/>
<polygon fill="black" stroke="black" points="1293.95,-699.1 1288.7,-684.1 1283.45,-699.1 1293.95,-699.1"/>
</g>
<!-- 38 -->
<g id="node35" class="node">
<title>38</title>
<ellipse fill="gray" stroke="black" cx="1410.7" cy="-810" rx="32.49" ry="18"/>
<text text-anchor="middle" x="1410.7" y="-806.3" font-family="Courier,monospace" font-size="14.00">l3,5</text>
</g>
<!-- 41 -->
<g id="node38" class="node">
<title>41</title>
<ellipse fill="gray" stroke="black" cx="1410.7" cy="-738" rx="32.49" ry="18"/>
<text text-anchor="middle" x="1410.7" y="-734.3" font-family="Courier,monospace" font-size="14.00">l2,6</text>
</g>
<!-- 38&#45;&gt;41 -->
<g id="edge35" class="edge">
<title>38&#45;&gt;41</title>
<path fill="none" stroke="black" d="M1410.7,-791.7C1410.7,-785.51 1410.7,-778.32 1410.7,-771.28"/>
<polygon fill="black" stroke="black" points="1415.95,-771.1 1410.7,-756.1 1405.45,-771.1 1415.95,-771.1"/>
</g>
<!-- 39&#45;&gt;39 -->
<g id="edge36" class="edge">
<title>39&#45;&gt;39</title>
<path fill="none" stroke="black" d="M1318.78,-678.94C1334.9,-681.14 1349.59,-676.83 1349.59,-666 1349.59,-658.81 1343.11,-654.49 1334.04,-653.05"/>
<polygon fill="black" stroke="black" points="1333.77,-647.8 1318.78,-653.06 1333.78,-658.3 1333.77,-647.8"/>
</g>
<!-- 40 -->
<g id="node37" class="node">
<title>40</title>
<ellipse fill="gray" stroke="black" cx="902.7" cy="-450" rx="32.49" ry="18"/>
<text text-anchor="middle" x="902.7" y="-446.3" font-family="Courier,monospace" font-size="14.00">l1,6</text>
</g>
<!-- 40&#45;&gt;17 -->
<g id="edge37" class="edge">
<title>40&#45;&gt;17</title>
<path fill="none" stroke="black" d="M878.17,-437.91C872.52,-435.68 866.47,-433.55 860.7,-432 746.05,-401.15 606.45,-387.4 534.93,-382.01"/>
<polygon fill="black" stroke="black" points="535.25,-376.77 519.91,-380.93 534.49,-387.25 535.25,-376.77"/>
</g>
<!-- 43 -->
<g id="node40" class="node">
<title>43</title>
<ellipse fill="gray" stroke="black" cx="1410.7" cy="-666" rx="42.79" ry="18"/>
<text text-anchor="middle" x="1410.7" y="-662.3" font-family="Courier,monospace" font-size="14.00">Done,6</text>
</g>
<!-- 41&#45;&gt;43 -->
<g id="edge38" class="edge">
<title>41&#45;&gt;43</title>
<path fill="none" stroke="black" d="M1410.7,-719.7C1410.7,-713.51 1410.7,-706.32 1410.7,-699.28"/>
<polygon fill="black" stroke="black" points="1415.95,-699.1 1410.7,-684.1 1405.45,-699.1 1415.95,-699.1"/>
</g>
<!-- 42 -->
<g id="node39" class="node">
<title>42</title>
<ellipse fill="gray" stroke="black" cx="1532.7" cy="-810" rx="32.49" ry="18"/>
<text text-anchor="middle" x="1532.7" y="-806.3" font-family="Courier,monospace" font-size="14.00">l3,6</text>
</g>
<!-- 44 -->
<g id="node41" class="node">
<title>44</title>
<ellipse fill="none" stroke="black" cx="1532.7" cy="-738" rx="32.49" ry="18"/>
<text text-anchor="middle" x="1532.7" y="-734.3" font-family="Courier,monospace" font-size="14.00">l2,7</text>
</g>
<!-- 42&#45;&gt;44 -->
<g id="edge39" class="edge">
<title>42&#45;&gt;44</title>
<path fill="none" stroke="black" d="M1532.7,-791.7C1532.7,-785.51 1532.7,-778.32 1532.7,-771.28"/>
<polygon fill="black" stroke="black" points="1537.95,-771.1 1532.7,-756.1 1527.45,-771.1 1537.95,-771.1"/>
</g>
<!-- 43&#45;&gt;43 -->
<g id="edge40" class="edge">
<title>43&#45;&gt;43</title>
<path fill="none" stroke="black" d="M1440.78,-678.94C1456.9,-681.14 1471.59,-676.83 1471.59,-666 1471.59,-658.81 1465.11,-654.49 1456.04,-653.05"/>
<polygon fill="black" stroke="black" points="1455.77,-647.8 1440.78,-653.06 1455.78,-658.3 1455.77,-647.8"/>
</g>
<!-- 45 -->
<g id="node42" class="node">
<title>45</title>
<ellipse fill="none" stroke="black" cx="1532.7" cy="-666" rx="42.79" ry="18"/>
<text text-anchor="middle" x="1532.7" y="-662.3" font-family="Courier,monospace" font-size="14.00">Done,7</text>
</g>
<!-- 44&#45;&gt;45 -->
<g id="edge41" class="edge">
<title>44&#45;&gt;45</title>
<path fill="none" stroke="black" d="M1532.7,-719.7C1532.7,-713.51 1532.7,-706.32 1532.7,-699.28"/>
<polygon fill="black" stroke="black" points="1537.95,-699.1 1532.7,-684.1 1527.45,-699.1 1537.95,-699.1"/>
</g>
<!-- 45&#45;&gt;45 -->
<g id="edge42" class="edge">
<title>45&#45;&gt;45</title>
<path fill="none" stroke="black" d="M1562.78,-678.94C1578.9,-681.14 1593.59,-676.83 1593.59,-666 1593.59,-658.81 1587.11,-654.49 1578.04,-653.05"/>
<polygon fill="black" stroke="black" points="1577.77,-647.8 1562.78,-653.06 1577.78,-658.3 1577.77,-647.8"/>
</g>
</g>
</svg>
