<?xml version="1.0" encoding="UTF-8" standalone="no"?>
<!DOCTYPE svg PUBLIC "-//W3C//DTD SVG 1.1//EN"
 "http://www.w3.org/Graphics/SVG/1.1/DTD/svg11.dtd">
<!-- Generated by graphviz version 2.44.1 (20200629.0846)
 -->
<!-- Pages: 1 -->
<svg width="1905pt" height="836pt"
 viewBox="0.00 0.00 1905.04 836.00" xmlns="http://www.w3.org/2000/svg" xmlns:xlink="http://www.w3.org/1999/xlink">
<g id="graph0" class="graph" transform="scale(1 1) rotate(0) translate(4 832)">
<polygon fill="white" stroke="transparent" points="-4,4 -4,-832 1901.04,-832 1901.04,4 -4,4"/>
<!-- 4 -->
<g id="node1" class="node">
<title>4</title>
<ellipse fill="orange" stroke="black" cx="48.1" cy="-450" rx="48.19" ry="18"/>
<text text-anchor="middle" x="48.1" y="-446.3" font-family="Courier,monospace" font-size="14.00">(l1,&#45;3)</text>
</g>
<!-- 17 -->
<g id="node14" class="node">
<title>17</title>
<ellipse fill="orange" stroke="black" cx="603.1" cy="-378" rx="42.79" ry="18"/>
<text text-anchor="middle" x="603.1" y="-374.3" font-family="Courier,monospace" font-size="14.00">(l2,0)</text>
</g>
<!-- 4&#45;&gt;17 -->
<g id="edge1" class="edge">
<title>4&#45;&gt;17</title>
<path fill="none" stroke="black" d="M83.11,-437.46C90.32,-435.39 97.91,-433.44 105.1,-432 262.64,-400.4 452.25,-386.8 545.53,-381.69"/>
<polygon fill="black" stroke="black" points="546.02,-386.92 560.73,-380.88 545.47,-376.43 546.02,-386.92"/>
</g>
<!-- 5 -->
<g id="node2" class="node">
<title>5</title>
<ellipse fill="orange" stroke="black" cx="390.1" cy="-810" rx="48.19" ry="18"/>
<text text-anchor="middle" x="390.1" y="-806.3" font-family="Courier,monospace" font-size="14.00">(l2,&#45;3)</text>
</g>
<!-- 6 -->
<g id="node3" class="node">
<title>6</title>
<ellipse fill="orange" stroke="black" cx="390.1" cy="-738" rx="48.19" ry="18"/>
<text text-anchor="middle" x="390.1" y="-734.3" font-family="Courier,monospace" font-size="14.00">(l3,&#45;3)</text>
</g>
<!-- 5&#45;&gt;6 -->
<g id="edge2" class="edge">
<title>5&#45;&gt;6</title>
<path fill="none" stroke="black" d="M390.1,-791.7C390.1,-785.51 390.1,-778.32 390.1,-771.28"/>
<polygon fill="black" stroke="black" points="395.35,-771.1 390.1,-756.1 384.85,-771.1 395.35,-771.1"/>
</g>
<!-- 9 -->
<g id="node6" class="node">
<title>9</title>
<ellipse fill="orange" stroke="black" cx="390.1" cy="-666" rx="48.19" ry="18"/>
<text text-anchor="middle" x="390.1" y="-662.3" font-family="Courier,monospace" font-size="14.00">(l2,&#45;2)</text>
</g>
<!-- 6&#45;&gt;9 -->
<g id="edge3" class="edge">
<title>6&#45;&gt;9</title>
<path fill="none" stroke="black" d="M390.1,-719.7C390.1,-713.51 390.1,-706.32 390.1,-699.28"/>
<polygon fill="black" stroke="black" points="395.35,-699.1 390.1,-684.1 384.85,-699.1 395.35,-699.1"/>
</g>
<!-- 7 -->
<g id="node4" class="node">
<title>7</title>
<ellipse fill="orange" stroke="black" cx="515.1" cy="-810" rx="59.29" ry="18"/>
<text text-anchor="middle" x="515.1" y="-806.3" font-family="Courier,monospace" font-size="14.00">(Done,&#45;3)</text>
</g>
<!-- 7&#45;&gt;7 -->
<g id="edge4" class="edge">
<title>7&#45;&gt;7</title>
<path fill="none" stroke="black" d="M555.58,-823.17C575.05,-824.8 592.24,-820.41 592.24,-810 592.24,-802.44 583.17,-798.05 570.74,-796.85"/>
<polygon fill="black" stroke="black" points="570.58,-791.6 555.58,-796.83 570.57,-802.1 570.58,-791.6"/>
</g>
<!-- 8 -->
<g id="node5" class="node">
<title>8</title>
<ellipse fill="orange" stroke="black" cx="162.1" cy="-450" rx="48.19" ry="18"/>
<text text-anchor="middle" x="162.1" y="-446.3" font-family="Courier,monospace" font-size="14.00">(l1,&#45;2)</text>
</g>
<!-- 8&#45;&gt;17 -->
<g id="edge5" class="edge">
<title>8&#45;&gt;17</title>
<path fill="none" stroke="black" d="M197.15,-437.63C204.36,-435.55 211.93,-433.55 219.1,-432 334.07,-407.07 471.09,-391.47 546.42,-384.09"/>
<polygon fill="black" stroke="black" points="547.1,-389.3 561.53,-382.64 546.1,-378.85 547.1,-389.3"/>
</g>
<!-- 10 -->
<g id="node7" class="node">
<title>10</title>
<ellipse fill="orange" stroke="black" cx="390.1" cy="-594" rx="48.19" ry="18"/>
<text text-anchor="middle" x="390.1" y="-590.3" font-family="Courier,monospace" font-size="14.00">(l3,&#45;2)</text>
</g>
<!-- 9&#45;&gt;10 -->
<g id="edge6" class="edge">
<title>9&#45;&gt;10</title>
<path fill="none" stroke="black" d="M390.1,-647.7C390.1,-641.51 390.1,-634.32 390.1,-627.28"/>
<polygon fill="black" stroke="black" points="395.35,-627.1 390.1,-612.1 384.85,-627.1 395.35,-627.1"/>
</g>
<!-- 13 -->
<g id="node10" class="node">
<title>13</title>
<ellipse fill="orange" stroke="black" cx="390.1" cy="-522" rx="48.19" ry="18"/>
<text text-anchor="middle" x="390.1" y="-518.3" font-family="Courier,monospace" font-size="14.00">(l2,&#45;1)</text>
</g>
<!-- 10&#45;&gt;13 -->
<g id="edge7" class="edge">
<title>10&#45;&gt;13</title>
<path fill="none" stroke="black" d="M390.1,-575.7C390.1,-569.51 390.1,-562.32 390.1,-555.28"/>
<polygon fill="black" stroke="black" points="395.35,-555.1 390.1,-540.1 384.85,-555.1 395.35,-555.1"/>
</g>
<!-- 11 -->
<g id="node8" class="node">
<title>11</title>
<ellipse fill="orange" stroke="black" cx="669.1" cy="-810" rx="59.29" ry="18"/>
<text text-anchor="middle" x="669.1" y="-806.3" font-family="Courier,monospace" font-size="14.00">(Done,&#45;2)</text>
</g>
<!-- 11&#45;&gt;11 -->
<g id="edge8" class="edge">
<title>11&#45;&gt;11</title>
<path fill="none" stroke="black" d="M709.58,-823.17C729.05,-824.8 746.24,-820.41 746.24,-810 746.24,-802.44 737.17,-798.05 724.74,-796.85"/>
<polygon fill="black" stroke="black" points="724.58,-791.6 709.58,-796.83 724.57,-802.1 724.58,-791.6"/>
</g>
<!-- 12 -->
<g id="node9" class="node">
<title>12</title>
<ellipse fill="orange" stroke="black" cx="276.1" cy="-450" rx="48.19" ry="18"/>
<text text-anchor="middle" x="276.1" y="-446.3" font-family="Courier,monospace" font-size="14.00">(l1,&#45;1)</text>
</g>
<!-- 12&#45;&gt;17 -->
<g id="edge9" class="edge">
<title>12&#45;&gt;17</title>
<path fill="none" stroke="black" d="M311.83,-437.77C318.85,-435.73 326.18,-433.71 333.1,-432 407.34,-413.69 494.3,-397.55 549.05,-388.03"/>
<polygon fill="black" stroke="black" points="550.05,-393.19 563.94,-385.47 548.26,-382.84 550.05,-393.19"/>
</g>
<!-- 14 -->
<g id="node11" class="node">
<title>14</title>
<ellipse fill="orange" stroke="black" cx="390.1" cy="-450" rx="48.19" ry="18"/>
<text text-anchor="middle" x="390.1" y="-446.3" font-family="Courier,monospace" font-size="14.00">(l3,&#45;1)</text>
</g>
<!-- 13&#45;&gt;14 -->
<g id="edge10" class="edge">
<title>13&#45;&gt;14</title>
<path fill="none" stroke="black" d="M390.1,-503.7C390.1,-497.51 390.1,-490.32 390.1,-483.28"/>
<polygon fill="black" stroke="black" points="395.35,-483.1 390.1,-468.1 384.85,-483.1 395.35,-483.1"/>
</g>
<!-- 14&#45;&gt;17 -->
<g id="edge11" class="edge">
<title>14&#45;&gt;17</title>
<path fill="none" stroke="black" d="M425.27,-437.44C461,-425.7 516.55,-407.44 556.04,-394.46"/>
<polygon fill="black" stroke="black" points="557.71,-399.44 570.32,-389.77 554.43,-389.47 557.71,-399.44"/>
</g>
<!-- 15 -->
<g id="node12" class="node">
<title>15</title>
<ellipse fill="orange" stroke="black" cx="823.1" cy="-810" rx="59.29" ry="18"/>
<text text-anchor="middle" x="823.1" y="-806.3" font-family="Courier,monospace" font-size="14.00">(Done,&#45;1)</text>
</g>
<!-- 15&#45;&gt;15 -->
<g id="edge12" class="edge">
<title>15&#45;&gt;15</title>
<path fill="none" stroke="black" d="M863.58,-823.17C883.05,-824.8 900.24,-820.41 900.24,-810 900.24,-802.44 891.17,-798.05 878.74,-796.85"/>
<polygon fill="black" stroke="black" points="878.58,-791.6 863.58,-796.83 878.57,-802.1 878.58,-791.6"/>
</g>
<!-- 16 -->
<g id="node13" class="node">
<title>16</title>
<ellipse fill="orange" stroke="black" cx="499.1" cy="-450" rx="42.79" ry="18"/>
<text text-anchor="middle" x="499.1" y="-446.3" font-family="Courier,monospace" font-size="14.00">(l1,0)</text>
</g>
<!-- 16&#45;&gt;17 -->
<g id="edge13" class="edge">
<title>16&#45;&gt;17</title>
<path fill="none" stroke="black" d="M520.9,-434.33C534.76,-424.99 553.02,-412.71 568.8,-402.09"/>
<polygon fill="black" stroke="black" points="571.81,-406.39 581.32,-393.65 565.95,-397.68 571.81,-406.39"/>
</g>
<!-- 18 -->
<g id="node15" class="node">
<title>18</title>
<ellipse fill="orange" stroke="black" cx="603.1" cy="-306" rx="42.79" ry="18"/>
<text text-anchor="middle" x="603.1" y="-302.3" font-family="Courier,monospace" font-size="14.00">(l3,0)</text>
</g>
<!-- 17&#45;&gt;18 -->
<g id="edge14" class="edge">
<title>17&#45;&gt;18</title>
<path fill="none" stroke="black" d="M603.1,-359.7C603.1,-353.51 603.1,-346.32 603.1,-339.28"/>
<polygon fill="black" stroke="black" points="608.35,-339.1 603.1,-324.1 597.85,-339.1 608.35,-339.1"/>
</g>
<!-- 21 -->
<g id="node18" class="node">
<title>21</title>
<ellipse fill="orange" stroke="black" cx="603.1" cy="-234" rx="42.79" ry="18"/>
<text text-anchor="middle" x="603.1" y="-230.3" font-family="Courier,monospace" font-size="14.00">(l2,1)</text>
</g>
<!-- 18&#45;&gt;21 -->
<g id="edge15" class="edge">
<title>18&#45;&gt;21</title>
<path fill="none" stroke="black" d="M603.1,-287.7C603.1,-281.51 603.1,-274.32 603.1,-267.28"/>
<polygon fill="black" stroke="black" points="608.35,-267.1 603.1,-252.1 597.85,-267.1 608.35,-267.1"/>
</g>
<!-- 19 -->
<g id="node16" class="node">
<title>19</title>
<ellipse fill="orange" stroke="black" cx="972.1" cy="-810" rx="53.89" ry="18"/>
<text text-anchor="middle" x="972.1" y="-806.3" font-family="Courier,monospace" font-size="14.00">(Done,0)</text>
</g>
<!-- 19&#45;&gt;19 -->
<g id="edge16" class="edge">
<title>19&#45;&gt;19</title>
<path fill="none" stroke="black" d="M1009.11,-823.1C1027.57,-824.91 1044.04,-820.55 1044.04,-810 1044.04,-802.5 1035.72,-798.13 1024.27,-796.88"/>
<polygon fill="black" stroke="black" points="1024.11,-791.63 1009.11,-796.9 1024.12,-802.13 1024.11,-791.63"/>
</g>
<!-- 20 -->
<g id="node17" class="node">
<title>20</title>
<ellipse fill="orange" stroke="black" cx="603.1" cy="-450" rx="42.79" ry="18"/>
<text text-anchor="middle" x="603.1" y="-446.3" font-family="Courier,monospace" font-size="14.00">(l1,1)</text>
</g>
<!-- 20&#45;&gt;17 -->
<g id="edge17" class="edge">
<title>20&#45;&gt;17</title>
<path fill="none" stroke="black" d="M603.1,-431.7C603.1,-425.51 603.1,-418.32 603.1,-411.28"/>
<polygon fill="black" stroke="black" points="608.35,-411.1 603.1,-396.1 597.85,-411.1 608.35,-411.1"/>
</g>
<!-- 22 -->
<g id="node19" class="node">
<title>22</title>
<ellipse fill="orange" stroke="black" cx="603.1" cy="-162" rx="42.79" ry="18"/>
<text text-anchor="middle" x="603.1" y="-158.3" font-family="Courier,monospace" font-size="14.00">(l3,1)</text>
</g>
<!-- 21&#45;&gt;22 -->
<g id="edge18" class="edge">
<title>21&#45;&gt;22</title>
<path fill="none" stroke="black" d="M603.1,-215.7C603.1,-209.51 603.1,-202.32 603.1,-195.28"/>
<polygon fill="black" stroke="black" points="608.35,-195.1 603.1,-180.1 597.85,-195.1 608.35,-195.1"/>
</g>
<!-- 25 -->
<g id="node22" class="node">
<title>25</title>
<ellipse fill="orange" stroke="black" cx="603.1" cy="-90" rx="42.79" ry="18"/>
<text text-anchor="middle" x="603.1" y="-86.3" font-family="Courier,monospace" font-size="14.00">(l2,2)</text>
</g>
<!-- 22&#45;&gt;25 -->
<g id="edge19" class="edge">
<title>22&#45;&gt;25</title>
<path fill="none" stroke="black" d="M603.1,-143.7C603.1,-137.51 603.1,-130.32 603.1,-123.28"/>
<polygon fill="black" stroke="black" points="608.35,-123.1 603.1,-108.1 597.85,-123.1 608.35,-123.1"/>
</g>
<!-- 23 -->
<g id="node20" class="node">
<title>23</title>
<ellipse fill="orange" stroke="black" cx="1116.1" cy="-810" rx="53.89" ry="18"/>
<text text-anchor="middle" x="1116.1" y="-806.3" font-family="Courier,monospace" font-size="14.00">(Done,1)</text>
</g>
<!-- 23&#45;&gt;23 -->
<g id="edge20" class="edge">
<title>23&#45;&gt;23</title>
<path fill="none" stroke="black" d="M1153.11,-823.1C1171.57,-824.91 1188.04,-820.55 1188.04,-810 1188.04,-802.5 1179.72,-798.13 1168.27,-796.88"/>
<polygon fill="black" stroke="black" points="1168.11,-791.63 1153.11,-796.9 1168.12,-802.13 1168.11,-791.63"/>
</g>
<!-- 24 -->
<g id="node21" class="node">
<title>24</title>
<ellipse fill="orange" stroke="black" cx="707.1" cy="-450" rx="42.79" ry="18"/>
<text text-anchor="middle" x="707.1" y="-446.3" font-family="Courier,monospace" font-size="14.00">(l1,2)</text>
</g>
<!-- 24&#45;&gt;17 -->
<g id="edge21" class="edge">
<title>24&#45;&gt;17</title>
<path fill="none" stroke="black" d="M685.29,-434.33C671.43,-424.99 653.18,-412.71 637.39,-402.09"/>
<polygon fill="black" stroke="black" points="640.24,-397.68 624.87,-393.65 634.38,-406.39 640.24,-397.68"/>
</g>
<!-- 27 -->
<g id="node24" class="node">
<title>27</title>
<ellipse fill="orange" stroke="black" cx="603.1" cy="-18" rx="53.89" ry="18"/>
<text text-anchor="middle" x="603.1" y="-14.3" font-family="Courier,monospace" font-size="14.00">(Done,2)</text>
</g>
<!-- 25&#45;&gt;27 -->
<g id="edge22" class="edge">
<title>25&#45;&gt;27</title>
<path fill="none" stroke="black" d="M603.1,-71.7C603.1,-65.51 603.1,-58.32 603.1,-51.28"/>
<polygon fill="black" stroke="black" points="608.35,-51.1 603.1,-36.1 597.85,-51.1 608.35,-51.1"/>
</g>
<!-- 26 -->
<g id="node23" class="node">
<title>26</title>
<ellipse fill="salmon" stroke="black" cx="1249.1" cy="-810" rx="42.79" ry="18"/>
<text text-anchor="middle" x="1249.1" y="-806.3" font-family="Courier,monospace" font-size="14.00">(l3,2)</text>
</g>
<!-- 29 -->
<g id="node26" class="node">
<title>29</title>
<ellipse fill="orange" stroke="black" cx="1249.1" cy="-738" rx="42.79" ry="18"/>
<text text-anchor="middle" x="1249.1" y="-734.3" font-family="Courier,monospace" font-size="14.00">(l2,3)</text>
</g>
<!-- 26&#45;&gt;29 -->
<g id="edge23" class="edge">
<title>26&#45;&gt;29</title>
<path fill="none" stroke="black" d="M1249.1,-791.7C1249.1,-785.51 1249.1,-778.32 1249.1,-771.28"/>
<polygon fill="black" stroke="black" points="1254.35,-771.1 1249.1,-756.1 1243.85,-771.1 1254.35,-771.1"/>
</g>
<!-- 27&#45;&gt;27 -->
<g id="edge24" class="edge">
<title>27&#45;&gt;27</title>
<path fill="none" stroke="black" d="M640.11,-31.1C658.57,-32.91 675.04,-28.55 675.04,-18 675.04,-10.5 666.72,-6.13 655.27,-4.88"/>
<polygon fill="black" stroke="black" points="655.11,0.37 640.11,-4.9 655.12,-10.13 655.11,0.37"/>
</g>
<!-- 28 -->
<g id="node25" class="node">
<title>28</title>
<ellipse fill="orange" stroke="black" cx="811.1" cy="-450" rx="42.79" ry="18"/>
<text text-anchor="middle" x="811.1" y="-446.3" font-family="Courier,monospace" font-size="14.00">(l1,3)</text>
</g>
<!-- 28&#45;&gt;17 -->
<g id="edge25" class="edge">
<title>28&#45;&gt;17</title>
<path fill="none" stroke="black" d="M778.6,-438.06C744.02,-426.43 689.02,-407.92 649.8,-394.72"/>
<polygon fill="black" stroke="black" points="651.26,-389.67 635.37,-389.86 647.91,-399.62 651.26,-389.67"/>
</g>
<!-- 31 -->
<g id="node28" class="node">
<title>31</title>
<ellipse fill="orange" stroke="black" cx="1249.1" cy="-666" rx="53.89" ry="18"/>
<text text-anchor="middle" x="1249.1" y="-662.3" font-family="Courier,monospace" font-size="14.00">(Done,3)</text>
</g>
<!-- 29&#45;&gt;31 -->
<g id="edge26" class="edge">
<title>29&#45;&gt;31</title>
<path fill="none" stroke="black" d="M1249.1,-719.7C1249.1,-713.51 1249.1,-706.32 1249.1,-699.28"/>
<polygon fill="black" stroke="black" points="1254.35,-699.1 1249.1,-684.1 1243.85,-699.1 1254.35,-699.1"/>
</g>
<!-- 30 -->
<g id="node27" class="node">
<title>30</title>
<ellipse fill="none" stroke="black" cx="1393.1" cy="-810" rx="42.79" ry="18"/>
<text text-anchor="middle" x="1393.1" y="-806.3" font-family="Courier,monospace" font-size="14.00">(l3,3)</text>
</g>
<!-- 33 -->
<g id="node30" class="node">
<title>33</title>
<ellipse fill="orange" stroke="black" cx="1393.1" cy="-738" rx="42.79" ry="18"/>
<text text-anchor="middle" x="1393.1" y="-734.3" font-family="Courier,monospace" font-size="14.00">(l2,4)</text>
</g>
<!-- 30&#45;&gt;33 -->
<g id="edge27" class="edge">
<title>30&#45;&gt;33</title>
<path fill="none" stroke="black" d="M1393.1,-791.7C1393.1,-785.51 1393.1,-778.32 1393.1,-771.28"/>
<polygon fill="black" stroke="black" points="1398.35,-771.1 1393.1,-756.1 1387.85,-771.1 1398.35,-771.1"/>
</g>
<!-- 31&#45;&gt;31 -->
<g id="edge28" class="edge">
<title>31&#45;&gt;31</title>
<path fill="none" stroke="black" d="M1286.11,-679.1C1304.57,-680.91 1321.04,-676.55 1321.04,-666 1321.04,-658.5 1312.72,-654.13 1301.27,-652.88"/>
<polygon fill="black" stroke="black" points="1301.11,-647.63 1286.11,-652.9 1301.12,-658.13 1301.11,-647.63"/>
</g>
<!-- 32 -->
<g id="node29" class="node">
<title>32</title>
<ellipse fill="orange" stroke="black" cx="915.1" cy="-450" rx="42.79" ry="18"/>
<text text-anchor="middle" x="915.1" y="-446.3" font-family="Courier,monospace" font-size="14.00">(l1,4)</text>
</g>
<!-- 32&#45;&gt;17 -->
<g id="edge29" class="edge">
<title>32&#45;&gt;17</title>
<path fill="none" stroke="black" d="M883.09,-437.9C876.52,-435.8 869.62,-433.72 863.1,-432 792.72,-413.39 710.15,-397.56 657.27,-388.17"/>
<polygon fill="black" stroke="black" points="657.86,-382.94 642.18,-385.52 656.05,-393.29 657.86,-382.94"/>
</g>
<!-- 35 -->
<g id="node32" class="node">
<title>35</title>
<ellipse fill="orange" stroke="black" cx="1393.1" cy="-666" rx="53.89" ry="18"/>
<text text-anchor="middle" x="1393.1" y="-662.3" font-family="Courier,monospace" font-size="14.00">(Done,4)</text>
</g>
<!-- 33&#45;&gt;35 -->
<g id="edge30" class="edge">
<title>33&#45;&gt;35</title>
<path fill="none" stroke="black" d="M1393.1,-719.7C1393.1,-713.51 1393.1,-706.32 1393.1,-699.28"/>
<polygon fill="black" stroke="black" points="1398.35,-699.1 1393.1,-684.1 1387.85,-699.1 1398.35,-699.1"/>
</g>
<!-- 34 -->
<g id="node31" class="node">
<title>34</title>
<ellipse fill="none" stroke="black" cx="1537.1" cy="-810" rx="42.79" ry="18"/>
<text text-anchor="middle" x="1537.1" y="-806.3" font-family="Courier,monospace" font-size="14.00">(l3,4)</text>
</g>
<!-- 37 -->
<g id="node34" class="node">
<title>37</title>
<ellipse fill="orange" stroke="black" cx="1537.1" cy="-738" rx="42.79" ry="18"/>
<text text-anchor="middle" x="1537.1" y="-734.3" font-family="Courier,monospace" font-size="14.00">(l2,5)</text>
</g>
<!-- 34&#45;&gt;37 -->
<g id="edge31" class="edge">
<title>34&#45;&gt;37</title>
<path fill="none" stroke="black" d="M1537.1,-791.7C1537.1,-785.51 1537.1,-778.32 1537.1,-771.28"/>
<polygon fill="black" stroke="black" points="1542.35,-771.1 1537.1,-756.1 1531.85,-771.1 1542.35,-771.1"/>
</g>
<!-- 35&#45;&gt;35 -->
<g id="edge32" class="edge">
<title>35&#45;&gt;35</title>
<path fill="none" stroke="black" d="M1430.11,-679.1C1448.57,-680.91 1465.04,-676.55 1465.04,-666 1465.04,-658.5 1456.72,-654.13 1445.27,-652.88"/>
<polygon fill="black" stroke="black" points="1445.11,-647.63 1430.11,-652.9 1445.12,-658.13 1445.11,-647.63"/>
</g>
<!-- 36 -->
<g id="node33" class="node">
<title>36</title>
<ellipse fill="orange" stroke="black" cx="1019.1" cy="-450" rx="42.79" ry="18"/>
<text text-anchor="middle" x="1019.1" y="-446.3" font-family="Courier,monospace" font-size="14.00">(l1,5)</text>
</g>
<!-- 36&#45;&gt;17 -->
<g id="edge33" class="edge">
<title>36&#45;&gt;17</title>
<path fill="none" stroke="black" d="M987.44,-437.7C980.78,-435.59 973.75,-433.56 967.1,-432 859.79,-406.84 731.73,-391.52 659.67,-384.2"/>
<polygon fill="black" stroke="black" points="660.19,-378.98 644.74,-382.72 659.15,-389.43 660.19,-378.98"/>
</g>
<!-- 39 -->
<g id="node36" class="node">
<title>39</title>
<ellipse fill="orange" stroke="black" cx="1537.1" cy="-666" rx="53.89" ry="18"/>
<text text-anchor="middle" x="1537.1" y="-662.3" font-family="Courier,monospace" font-size="14.00">(Done,5)</text>
</g>
<!-- 37&#45;&gt;39 -->
<g id="edge34" class="edge">
<title>37&#45;&gt;39</title>
<path fill="none" stroke="black" d="M1537.1,-719.7C1537.1,-713.51 1537.1,-706.32 1537.1,-699.28"/>
<polygon fill="black" stroke="black" points="1542.35,-699.1 1537.1,-684.1 1531.85,-699.1 1542.35,-699.1"/>
</g>
<!-- 38 -->
<g id="node35" class="node">
<title>38</title>
<ellipse fill="none" stroke="black" cx="1681.1" cy="-810" rx="42.79" ry="18"/>
<text text-anchor="middle" x="1681.1" y="-806.3" font-family="Courier,monospace" font-size="14.00">(l3,5)</text>
</g>
<!-- 41 -->
<g id="node38" class="node">
<title>41</title>
<ellipse fill="orange" stroke="black" cx="1681.1" cy="-738" rx="42.79" ry="18"/>
<text text-anchor="middle" x="1681.1" y="-734.3" font-family="Courier,monospace" font-size="14.00">(l2,6)</text>
</g>
<!-- 38&#45;&gt;41 -->
<g id="edge35" class="edge">
<title>38&#45;&gt;41</title>
<path fill="none" stroke="black" d="M1681.1,-791.7C1681.1,-785.51 1681.1,-778.32 1681.1,-771.28"/>
<polygon fill="black" stroke="black" points="1686.35,-771.1 1681.1,-756.1 1675.85,-771.1 1686.35,-771.1"/>
</g>
<!-- 39&#45;&gt;39 -->
<g id="edge36" class="edge">
<title>39&#45;&gt;39</title>
<path fill="none" stroke="black" d="M1574.11,-679.1C1592.57,-680.91 1609.04,-676.55 1609.04,-666 1609.04,-658.5 1600.72,-654.13 1589.27,-652.88"/>
<polygon fill="black" stroke="black" points="1589.11,-647.63 1574.11,-652.9 1589.12,-658.13 1589.11,-647.63"/>
</g>
<!-- 40 -->
<g id="node37" class="node">
<title>40</title>
<ellipse fill="orange" stroke="black" cx="1123.1" cy="-450" rx="42.79" ry="18"/>
<text text-anchor="middle" x="1123.1" y="-446.3" font-family="Courier,monospace" font-size="14.00">(l1,6)</text>
</g>
<!-- 40&#45;&gt;17 -->
<g id="edge37" class="edge">
<title>40&#45;&gt;17</title>
<path fill="none" stroke="black" d="M1091.76,-437.62C1085.01,-435.49 1077.87,-433.47 1071.1,-432 925.25,-400.25 749.45,-386.83 660.56,-381.74"/>
<polygon fill="black" stroke="black" points="660.78,-376.5 645.52,-380.92 660.2,-386.98 660.78,-376.5"/>
</g>
<!-- 43 -->
<g id="node40" class="node">
<title>43</title>
<ellipse fill="orange" stroke="black" cx="1681.1" cy="-666" rx="53.89" ry="18"/>
<text text-anchor="middle" x="1681.1" y="-662.3" font-family="Courier,monospace" font-size="14.00">(Done,6)</text>
</g>
<!-- 41&#45;&gt;43 -->
<g id="edge38" class="edge">
<title>41&#45;&gt;43</title>
<path fill="none" stroke="black" d="M1681.1,-719.7C1681.1,-713.51 1681.1,-706.32 1681.1,-699.28"/>
<polygon fill="black" stroke="black" points="1686.35,-699.1 1681.1,-684.1 1675.85,-699.1 1686.35,-699.1"/>
</g>
<!-- 42 -->
<g id="node39" class="node">
<title>42</title>
<ellipse fill="none" stroke="black" cx="1825.1" cy="-810" rx="42.79" ry="18"/>
<text text-anchor="middle" x="1825.1" y="-806.3" font-family="Courier,monospace" font-size="14.00">(l3,6)</text>
</g>
<!-- 44 -->
<g id="node41" class="node">
<title>44</title>
<ellipse fill="orange" stroke="black" cx="1825.1" cy="-738" rx="42.79" ry="18"/>
<text text-anchor="middle" x="1825.1" y="-734.3" font-family="Courier,monospace" font-size="14.00">(l2,7)</text>
</g>
<!-- 42&#45;&gt;44 -->
<g id="edge39" class="edge">
<title>42&#45;&gt;44</title>
<path fill="none" stroke="black" d="M1825.1,-791.7C1825.1,-785.51 1825.1,-778.32 1825.1,-771.28"/>
<polygon fill="black" stroke="black" points="1830.35,-771.1 1825.1,-756.1 1819.85,-771.1 1830.35,-771.1"/>
</g>
<!-- 43&#45;&gt;43 -->
<g id="edge40" class="edge">
<title>43&#45;&gt;43</title>
<path fill="none" stroke="black" d="M1718.11,-679.1C1736.57,-680.91 1753.04,-676.55 1753.04,-666 1753.04,-658.5 1744.72,-654.13 1733.27,-652.88"/>
<polygon fill="black" stroke="black" points="1733.11,-647.63 1718.11,-652.9 1733.12,-658.13 1733.11,-647.63"/>
</g>
<!-- 45 -->
<g id="node42" class="node">
<title>45</title>
<ellipse fill="orange" stroke="black" cx="1825.1" cy="-666" rx="53.89" ry="18"/>
<text text-anchor="middle" x="1825.1" y="-662.3" font-family="Courier,monospace" font-size="14.00">(Done,7)</text>
</g>
<!-- 44&#45;&gt;45 -->
<g id="edge41" class="edge">
<title>44&#45;&gt;45</title>
<path fill="none" stroke="black" d="M1825.1,-719.7C1825.1,-713.51 1825.1,-706.32 1825.1,-699.28"/>
<polygon fill="black" stroke="black" points="1830.35,-699.1 1825.1,-684.1 1819.85,-699.1 1830.35,-699.1"/>
</g>
<!-- 45&#45;&gt;45 -->
<g id="edge42" class="edge">
<title>45&#45;&gt;45</title>
<path fill="none" stroke="black" d="M1862.11,-679.1C1880.57,-680.91 1897.04,-676.55 1897.04,-666 1897.04,-658.5 1888.72,-654.13 1877.27,-652.88"/>
<polygon fill="black" stroke="black" points="1877.11,-647.63 1862.11,-652.9 1877.12,-658.13 1877.11,-647.63"/>
</g>
</g>
</svg>
