<?xml version="1.0" encoding="UTF-8" standalone="no"?>
<!DOCTYPE svg PUBLIC "-//W3C//DTD SVG 1.1//EN"
 "http://www.w3.org/Graphics/SVG/1.1/DTD/svg11.dtd">
<!-- Generated by graphviz version 2.44.1 (20200629.0846)
 -->
<!-- Pages: 1 -->
<svg width="1287pt" height="944pt"
 viewBox="0.00 0.00 1287.42 944.00" xmlns="http://www.w3.org/2000/svg" xmlns:xlink="http://www.w3.org/1999/xlink">
<g id="graph0" class="graph" transform="scale(1 1) rotate(0) translate(4 940)">
<polygon fill="white" stroke="transparent" points="-4,4 -4,-940 1283.42,-940 1283.42,4 -4,4"/>
<!-- 4 -->
<g id="node1" class="node">
<title>4</title>
<ellipse fill="orange" stroke="black" cx="478.47" cy="-450" rx="48.19" ry="18"/>
<text text-anchor="middle" x="478.47" y="-446.3" font-family="Courier,monospace" font-size="14.00">(l1,&#45;2)</text>
</g>
<!-- 13 -->
<g id="node10" class="node">
<title>13</title>
<ellipse fill="orange" stroke="blue" stroke-width="4" cx="605.46" cy="-234" rx="42.79" ry="18"/>
<text text-anchor="middle" x="605.46" y="-230.3" font-family="Courier,monospace" font-size="14.00">(l2,0)</text>
</g>
<!-- 4&#45;&gt;13 -->
<g id="edge1" class="edge">
<title>4&#45;&gt;13</title>
<path fill="none" stroke="black" d="M510.05,-436.41C516.08,-432.71 521.96,-428.24 526.56,-423 566.89,-377.08 588.21,-307.41 597.85,-266.73"/>
<polygon fill="black" stroke="black" points="603,-267.72 601.13,-251.94 592.75,-265.45 603,-267.72"/>
</g>
<!-- 5 -->
<g id="node2" class="node">
<title>5</title>
<ellipse fill="orange" stroke="black" cx="59.14" cy="-342" rx="48.19" ry="18"/>
<text text-anchor="middle" x="59.14" y="-338.3" font-family="Courier,monospace" font-size="14.00">(l2,&#45;2)</text>
</g>
<!-- 6 -->
<g id="node3" class="node">
<title>6</title>
<ellipse fill="orange" stroke="black" cx="202.39" cy="-342" rx="48.19" ry="18"/>
<text text-anchor="middle" x="202.39" y="-338.3" font-family="Courier,monospace" font-size="14.00">(l3,&#45;2)</text>
</g>
<!-- 5&#45;&gt;6 -->
<g id="edge2" class="edge">
<title>5&#45;&gt;6</title>
<path fill="none" stroke="black" d="M107.57,-342C117.58,-342 128.3,-342 138.78,-342"/>
<polygon fill="black" stroke="black" points="138.85,-347.25 153.85,-342 138.85,-336.75 138.85,-347.25"/>
</g>
<!-- 9 -->
<g id="node6" class="node">
<title>9</title>
<ellipse fill="orange" stroke="black" cx="340.43" cy="-342" rx="48.19" ry="18"/>
<text text-anchor="middle" x="340.43" y="-338.3" font-family="Courier,monospace" font-size="14.00">(l2,&#45;1)</text>
</g>
<!-- 6&#45;&gt;9 -->
<g id="edge3" class="edge">
<title>6&#45;&gt;9</title>
<path fill="none" stroke="black" d="M250.58,-342C259.13,-342 268.16,-342 277.07,-342"/>
<polygon fill="black" stroke="black" points="277.31,-347.25 292.31,-342 277.31,-336.75 277.31,-347.25"/>
</g>
<!-- 7 -->
<g id="node4" class="node">
<title>7</title>
<ellipse fill="orange" stroke="black" cx="59.14" cy="-396" rx="59.29" ry="18"/>
<text text-anchor="middle" x="59.14" y="-392.3" font-family="Courier,monospace" font-size="14.00">(Done,&#45;2)</text>
</g>
<!-- 7&#45;&gt;7 -->
<g id="edge4" class="edge">
<title>7&#45;&gt;7</title>
<path fill="none" stroke="black" d="M34.18,-412.66C28.64,-422.62 36.96,-432 59.14,-432 68.85,-432 75.9,-430.21 80.3,-427.35"/>
<polygon fill="black" stroke="black" points="85.43,-428.5 84.11,-412.66 75.26,-425.87 85.43,-428.5"/>
</g>
<!-- 8 -->
<g id="node5" class="node">
<title>8</title>
<ellipse fill="orange" stroke="black" cx="478.47" cy="-396" rx="48.19" ry="18"/>
<text text-anchor="middle" x="478.47" y="-392.3" font-family="Courier,monospace" font-size="14.00">(l1,&#45;1)</text>
</g>
<!-- 8&#45;&gt;13 -->
<g id="edge5" class="edge">
<title>8&#45;&gt;13</title>
<path fill="none" stroke="black" d="M509.54,-381.93C515.61,-378.26 521.62,-373.92 526.56,-369 556.42,-339.22 578.79,-295.67 591.73,-266.15"/>
<polygon fill="black" stroke="black" points="596.65,-268 597.62,-252.14 586.97,-263.93 596.65,-268"/>
</g>
<!-- 10 -->
<g id="node7" class="node">
<title>10</title>
<ellipse fill="orange" stroke="black" cx="478.47" cy="-342" rx="48.19" ry="18"/>
<text text-anchor="middle" x="478.47" y="-338.3" font-family="Courier,monospace" font-size="14.00">(l3,&#45;1)</text>
</g>
<!-- 9&#45;&gt;10 -->
<g id="edge6" class="edge">
<title>9&#45;&gt;10</title>
<path fill="none" stroke="black" d="M388.62,-342C397.17,-342 406.2,-342 415.11,-342"/>
<polygon fill="black" stroke="black" points="415.35,-347.25 430.35,-342 415.35,-336.75 415.35,-347.25"/>
</g>
<!-- 10&#45;&gt;13 -->
<g id="edge7" class="edge">
<title>10&#45;&gt;13</title>
<path fill="none" stroke="black" d="M507.71,-327.55C514.13,-323.8 520.77,-319.52 526.56,-315 546.29,-299.6 565.81,-279.29 580.38,-262.86"/>
<polygon fill="black" stroke="black" points="584.62,-265.98 590.47,-251.2 576.68,-259.11 584.62,-265.98"/>
</g>
<!-- 11 -->
<g id="node8" class="node">
<title>11</title>
<ellipse fill="orange" stroke="black" cx="59.14" cy="-468" rx="59.29" ry="18"/>
<text text-anchor="middle" x="59.14" y="-464.3" font-family="Courier,monospace" font-size="14.00">(Done,&#45;1)</text>
</g>
<!-- 11&#45;&gt;11 -->
<g id="edge8" class="edge">
<title>11&#45;&gt;11</title>
<path fill="none" stroke="black" d="M34.18,-484.66C28.64,-494.62 36.96,-504 59.14,-504 68.85,-504 75.9,-502.21 80.3,-499.35"/>
<polygon fill="black" stroke="black" points="85.43,-500.5 84.11,-484.66 75.26,-497.87 85.43,-500.5"/>
</g>
<!-- 12 -->
<g id="node9" class="node">
<title>12</title>
<ellipse fill="orange" stroke="blue" stroke-width="4" cx="478.47" cy="-288" rx="42.79" ry="18"/>
<text text-anchor="middle" x="478.47" y="-284.3" font-family="Courier,monospace" font-size="14.00">(l1,0)</text>
</g>
<!-- 12&#45;&gt;13 -->
<g id="edge9" class="edge">
<title>12&#45;&gt;13</title>
<path fill="none" stroke="black" d="M509.09,-275.2C524.65,-268.48 544.02,-260.11 561.23,-252.67"/>
<polygon fill="black" stroke="black" points="563.36,-257.47 575.05,-246.71 559.2,-247.83 563.36,-257.47"/>
</g>
<!-- 14 -->
<g id="node11" class="node">
<title>14</title>
<ellipse fill="orange" stroke="blue" stroke-width="4" cx="727.25" cy="-234" rx="42.79" ry="18"/>
<text text-anchor="middle" x="727.25" y="-230.3" font-family="Courier,monospace" font-size="14.00">(l3,0)</text>
</g>
<!-- 13&#45;&gt;14 -->
<g id="edge10" class="edge">
<title>13&#45;&gt;14</title>
<path fill="none" stroke="black" d="M648.36,-234C655.07,-234 662.11,-234 669.1,-234"/>
<polygon fill="black" stroke="black" points="669.18,-239.25 684.18,-234 669.18,-228.75 669.18,-239.25"/>
</g>
<!-- 17 -->
<g id="node14" class="node">
<title>17</title>
<ellipse fill="orange" stroke="blue" stroke-width="4" cx="849.04" cy="-234" rx="42.79" ry="18"/>
<text text-anchor="middle" x="849.04" y="-230.3" font-family="Courier,monospace" font-size="14.00">(l2,1)</text>
</g>
<!-- 14&#45;&gt;17 -->
<g id="edge11" class="edge">
<title>14&#45;&gt;17</title>
<path fill="none" stroke="black" d="M770.15,-234C776.86,-234 783.9,-234 790.89,-234"/>
<polygon fill="black" stroke="black" points="790.97,-239.25 805.97,-234 790.97,-228.75 790.97,-239.25"/>
</g>
<!-- 15 -->
<g id="node12" class="node">
<title>15</title>
<ellipse fill="orange" stroke="black" cx="59.14" cy="-540" rx="53.89" ry="18"/>
<text text-anchor="middle" x="59.14" y="-536.3" font-family="Courier,monospace" font-size="14.00">(Done,0)</text>
</g>
<!-- 15&#45;&gt;15 -->
<g id="edge12" class="edge">
<title>15&#45;&gt;15</title>
<path fill="none" stroke="black" d="M34.4,-556.29C28.43,-566.39 36.68,-576 59.14,-576 68.97,-576 76.08,-574.16 80.47,-571.25"/>
<polygon fill="black" stroke="black" points="85.66,-572.08 83.89,-556.29 75.43,-569.74 85.66,-572.08"/>
</g>
<!-- 16 -->
<g id="node13" class="node">
<title>16</title>
<ellipse fill="orange" stroke="black" cx="478.47" cy="-234" rx="42.79" ry="18"/>
<text text-anchor="middle" x="478.47" y="-230.3" font-family="Courier,monospace" font-size="14.00">(l1,1)</text>
</g>
<!-- 16&#45;&gt;13 -->
<g id="edge13" class="edge">
<title>16&#45;&gt;13</title>
<path fill="none" stroke="black" d="M521.44,-234C529.68,-234 538.46,-234 547.11,-234"/>
<polygon fill="black" stroke="black" points="547.39,-239.25 562.39,-234 547.39,-228.75 547.39,-239.25"/>
</g>
<!-- 18 -->
<g id="node15" class="node">
<title>18</title>
<ellipse fill="orange" stroke="blue" stroke-width="4" cx="970.84" cy="-234" rx="42.79" ry="18"/>
<text text-anchor="middle" x="970.84" y="-230.3" font-family="Courier,monospace" font-size="14.00">(l3,1)</text>
</g>
<!-- 17&#45;&gt;18 -->
<g id="edge14" class="edge">
<title>17&#45;&gt;18</title>
<path fill="none" stroke="black" d="M891.94,-234C898.65,-234 905.69,-234 912.68,-234"/>
<polygon fill="black" stroke="black" points="912.76,-239.25 927.76,-234 912.76,-228.75 912.76,-239.25"/>
</g>
<!-- 21 -->
<g id="node18" class="node">
<title>21</title>
<ellipse fill="orange" stroke="blue" stroke-width="4" cx="1092.63" cy="-234" rx="42.79" ry="18"/>
<text text-anchor="middle" x="1092.63" y="-230.3" font-family="Courier,monospace" font-size="14.00">(l2,2)</text>
</g>
<!-- 18&#45;&gt;21 -->
<g id="edge15" class="edge">
<title>18&#45;&gt;21</title>
<path fill="none" stroke="black" d="M1013.73,-234C1020.44,-234 1027.48,-234 1034.48,-234"/>
<polygon fill="black" stroke="black" points="1034.55,-239.25 1049.55,-234 1034.55,-228.75 1034.55,-239.25"/>
</g>
<!-- 19 -->
<g id="node16" class="node">
<title>19</title>
<ellipse fill="orange" stroke="black" cx="59.14" cy="-612" rx="53.89" ry="18"/>
<text text-anchor="middle" x="59.14" y="-608.3" font-family="Courier,monospace" font-size="14.00">(Done,1)</text>
</g>
<!-- 19&#45;&gt;19 -->
<g id="edge16" class="edge">
<title>19&#45;&gt;19</title>
<path fill="none" stroke="black" d="M34.4,-628.29C28.43,-638.39 36.68,-648 59.14,-648 68.97,-648 76.08,-646.16 80.47,-643.25"/>
<polygon fill="black" stroke="black" points="85.66,-644.08 83.89,-628.29 75.43,-641.74 85.66,-644.08"/>
</g>
<!-- 20 -->
<g id="node17" class="node">
<title>20</title>
<ellipse fill="orange" stroke="black" cx="478.47" cy="-180" rx="42.79" ry="18"/>
<text text-anchor="middle" x="478.47" y="-176.3" font-family="Courier,monospace" font-size="14.00">(l1,2)</text>
</g>
<!-- 20&#45;&gt;13 -->
<g id="edge17" class="edge">
<title>20&#45;&gt;13</title>
<path fill="none" stroke="black" d="M509.09,-192.8C524.65,-199.52 544.02,-207.89 561.23,-215.33"/>
<polygon fill="black" stroke="black" points="559.2,-220.17 575.05,-221.29 563.36,-210.53 559.2,-220.17"/>
</g>
<!-- 23 -->
<g id="node20" class="node">
<title>23</title>
<ellipse fill="orange" stroke="blue" stroke-width="4" cx="1225.47" cy="-234" rx="53.89" ry="18"/>
<text text-anchor="middle" x="1225.47" y="-230.3" font-family="Courier,monospace" font-size="14.00">(Done,2)</text>
</g>
<!-- 21&#45;&gt;23 -->
<g id="edge18" class="edge">
<title>21&#45;&gt;23</title>
<path fill="none" stroke="black" d="M1135.75,-234C1142.31,-234 1149.24,-234 1156.21,-234"/>
<polygon fill="black" stroke="black" points="1156.41,-239.25 1171.41,-234 1156.41,-228.75 1156.41,-239.25"/>
</g>
<!-- 22 -->
<g id="node19" class="node">
<title>22</title>
<ellipse fill="none" stroke="black" cx="59.14" cy="-684" rx="42.79" ry="18"/>
<text text-anchor="middle" x="59.14" y="-680.3" font-family="Courier,monospace" font-size="14.00">(l3,2)</text>
</g>
<!-- 25 -->
<g id="node22" class="node">
<title>25</title>
<ellipse fill="orange" stroke="black" cx="202.39" cy="-684" rx="42.79" ry="18"/>
<text text-anchor="middle" x="202.39" y="-680.3" font-family="Courier,monospace" font-size="14.00">(l2,3)</text>
</g>
<!-- 22&#45;&gt;25 -->
<g id="edge19" class="edge">
<title>22&#45;&gt;25</title>
<path fill="none" stroke="black" d="M102.14,-684C115.26,-684 129.96,-684 143.94,-684"/>
<polygon fill="black" stroke="black" points="144.31,-689.25 159.31,-684 144.31,-678.75 144.31,-689.25"/>
</g>
<!-- 23&#45;&gt;23 -->
<g id="edge20" class="edge">
<title>23&#45;&gt;23</title>
<path fill="none" stroke="black" d="M1202.47,-250.29C1196.92,-260.39 1204.59,-270 1225.47,-270 1234.61,-270 1241.21,-268.16 1245.29,-265.25"/>
<polygon fill="black" stroke="black" points="1250.49,-266.05 1248.47,-250.29 1240.22,-263.87 1250.49,-266.05"/>
</g>
<!-- 24 -->
<g id="node21" class="node">
<title>24</title>
<ellipse fill="orange" stroke="black" cx="478.47" cy="-126" rx="42.79" ry="18"/>
<text text-anchor="middle" x="478.47" y="-122.3" font-family="Courier,monospace" font-size="14.00">(l1,3)</text>
</g>
<!-- 24&#45;&gt;13 -->
<g id="edge21" class="edge">
<title>24&#45;&gt;13</title>
<path fill="none" stroke="black" d="M506.72,-139.87C513.45,-143.77 520.47,-148.24 526.56,-153 546.29,-168.4 565.81,-188.71 580.38,-205.14"/>
<polygon fill="black" stroke="black" points="576.68,-208.89 590.47,-216.8 584.62,-202.02 576.68,-208.89"/>
</g>
<!-- 27 -->
<g id="node24" class="node">
<title>27</title>
<ellipse fill="orange" stroke="black" cx="340.43" cy="-684" rx="53.89" ry="18"/>
<text text-anchor="middle" x="340.43" y="-680.3" font-family="Courier,monospace" font-size="14.00">(Done,3)</text>
</g>
<!-- 25&#45;&gt;27 -->
<g id="edge22" class="edge">
<title>25&#45;&gt;27</title>
<path fill="none" stroke="black" d="M245.31,-684C253.51,-684 262.31,-684 271.11,-684"/>
<polygon fill="black" stroke="black" points="271.33,-689.25 286.33,-684 271.33,-678.75 271.33,-689.25"/>
</g>
<!-- 26 -->
<g id="node23" class="node">
<title>26</title>
<ellipse fill="none" stroke="black" cx="59.14" cy="-756" rx="42.79" ry="18"/>
<text text-anchor="middle" x="59.14" y="-752.3" font-family="Courier,monospace" font-size="14.00">(l3,3)</text>
</g>
<!-- 29 -->
<g id="node26" class="node">
<title>29</title>
<ellipse fill="orange" stroke="black" cx="202.39" cy="-756" rx="42.79" ry="18"/>
<text text-anchor="middle" x="202.39" y="-752.3" font-family="Courier,monospace" font-size="14.00">(l2,4)</text>
</g>
<!-- 26&#45;&gt;29 -->
<g id="edge23" class="edge">
<title>26&#45;&gt;29</title>
<path fill="none" stroke="black" d="M102.14,-756C115.26,-756 129.96,-756 143.94,-756"/>
<polygon fill="black" stroke="black" points="144.31,-761.25 159.31,-756 144.31,-750.75 144.31,-761.25"/>
</g>
<!-- 27&#45;&gt;27 -->
<g id="edge24" class="edge">
<title>27&#45;&gt;27</title>
<path fill="none" stroke="black" d="M316.38,-700.29C310.58,-710.39 318.59,-720 340.43,-720 349.98,-720 356.88,-718.16 361.15,-715.25"/>
<polygon fill="black" stroke="black" points="366.34,-716.07 364.48,-700.29 356.09,-713.79 366.34,-716.07"/>
</g>
<!-- 28 -->
<g id="node25" class="node">
<title>28</title>
<ellipse fill="orange" stroke="black" cx="478.47" cy="-72" rx="42.79" ry="18"/>
<text text-anchor="middle" x="478.47" y="-68.3" font-family="Courier,monospace" font-size="14.00">(l1,4)</text>
</g>
<!-- 28&#45;&gt;13 -->
<g id="edge25" class="edge">
<title>28&#45;&gt;13</title>
<path fill="none" stroke="black" d="M508.07,-85.19C514.62,-89.04 521.22,-93.68 526.56,-99 556.42,-128.78 578.79,-172.33 591.73,-201.85"/>
<polygon fill="black" stroke="black" points="586.97,-204.07 597.62,-215.86 596.65,-200 586.97,-204.07"/>
</g>
<!-- 31 -->
<g id="node28" class="node">
<title>31</title>
<ellipse fill="orange" stroke="black" cx="340.43" cy="-756" rx="53.89" ry="18"/>
<text text-anchor="middle" x="340.43" y="-752.3" font-family="Courier,monospace" font-size="14.00">(Done,4)</text>
</g>
<!-- 29&#45;&gt;31 -->
<g id="edge26" class="edge">
<title>29&#45;&gt;31</title>
<path fill="none" stroke="black" d="M245.31,-756C253.51,-756 262.31,-756 271.11,-756"/>
<polygon fill="black" stroke="black" points="271.33,-761.25 286.33,-756 271.33,-750.75 271.33,-761.25"/>
</g>
<!-- 30 -->
<g id="node27" class="node">
<title>30</title>
<ellipse fill="none" stroke="black" cx="59.14" cy="-828" rx="42.79" ry="18"/>
<text text-anchor="middle" x="59.14" y="-824.3" font-family="Courier,monospace" font-size="14.00">(l3,4)</text>
</g>
<!-- 33 -->
<g id="node30" class="node">
<title>33</title>
<ellipse fill="orange" stroke="black" cx="202.39" cy="-828" rx="42.79" ry="18"/>
<text text-anchor="middle" x="202.39" y="-824.3" font-family="Courier,monospace" font-size="14.00">(l2,5)</text>
</g>
<!-- 30&#45;&gt;33 -->
<g id="edge27" class="edge">
<title>30&#45;&gt;33</title>
<path fill="none" stroke="black" d="M102.14,-828C115.26,-828 129.96,-828 143.94,-828"/>
<polygon fill="black" stroke="black" points="144.31,-833.25 159.31,-828 144.31,-822.75 144.31,-833.25"/>
</g>
<!-- 31&#45;&gt;31 -->
<g id="edge28" class="edge">
<title>31&#45;&gt;31</title>
<path fill="none" stroke="black" d="M316.38,-772.29C310.58,-782.39 318.59,-792 340.43,-792 349.98,-792 356.88,-790.16 361.15,-787.25"/>
<polygon fill="black" stroke="black" points="366.34,-788.07 364.48,-772.29 356.09,-785.79 366.34,-788.07"/>
</g>
<!-- 32 -->
<g id="node29" class="node">
<title>32</title>
<ellipse fill="orange" stroke="black" cx="478.47" cy="-18" rx="42.79" ry="18"/>
<text text-anchor="middle" x="478.47" y="-14.3" font-family="Courier,monospace" font-size="14.00">(l1,5)</text>
</g>
<!-- 32&#45;&gt;13 -->
<g id="edge29" class="edge">
<title>32&#45;&gt;13</title>
<path fill="none" stroke="black" d="M509.08,-31C515.45,-34.81 521.71,-39.48 526.56,-45 566.89,-90.92 588.21,-160.59 597.85,-201.27"/>
<polygon fill="black" stroke="black" points="592.75,-202.55 601.13,-216.06 603,-200.28 592.75,-202.55"/>
</g>
<!-- 35 -->
<g id="node32" class="node">
<title>35</title>
<ellipse fill="orange" stroke="black" cx="340.43" cy="-828" rx="53.89" ry="18"/>
<text text-anchor="middle" x="340.43" y="-824.3" font-family="Courier,monospace" font-size="14.00">(Done,5)</text>
</g>
<!-- 33&#45;&gt;35 -->
<g id="edge30" class="edge">
<title>33&#45;&gt;35</title>
<path fill="none" stroke="black" d="M245.31,-828C253.51,-828 262.31,-828 271.11,-828"/>
<polygon fill="black" stroke="black" points="271.33,-833.25 286.33,-828 271.33,-822.75 271.33,-833.25"/>
</g>
<!-- 34 -->
<g id="node31" class="node">
<title>34</title>
<ellipse fill="none" stroke="black" cx="59.14" cy="-900" rx="42.79" ry="18"/>
<text text-anchor="middle" x="59.14" y="-896.3" font-family="Courier,monospace" font-size="14.00">(l3,5)</text>
</g>
<!-- 36 -->
<g id="node33" class="node">
<title>36</title>
<ellipse fill="orange" stroke="black" cx="202.39" cy="-900" rx="42.79" ry="18"/>
<text text-anchor="middle" x="202.39" y="-896.3" font-family="Courier,monospace" font-size="14.00">(l2,6)</text>
</g>
<!-- 34&#45;&gt;36 -->
<g id="edge31" class="edge">
<title>34&#45;&gt;36</title>
<path fill="none" stroke="black" d="M102.14,-900C115.26,-900 129.96,-900 143.94,-900"/>
<polygon fill="black" stroke="black" points="144.31,-905.25 159.31,-900 144.31,-894.75 144.31,-905.25"/>
</g>
<!-- 35&#45;&gt;35 -->
<g id="edge32" class="edge">
<title>35&#45;&gt;35</title>
<path fill="none" stroke="black" d="M316.38,-844.29C310.58,-854.39 318.59,-864 340.43,-864 349.98,-864 356.88,-862.16 361.15,-859.25"/>
<polygon fill="black" stroke="black" points="366.34,-860.07 364.48,-844.29 356.09,-857.79 366.34,-860.07"/>
</g>
<!-- 37 -->
<g id="node34" class="node">
<title>37</title>
<ellipse fill="orange" stroke="black" cx="340.43" cy="-900" rx="53.89" ry="18"/>
<text text-anchor="middle" x="340.43" y="-896.3" font-family="Courier,monospace" font-size="14.00">(Done,6)</text>
</g>
<!-- 36&#45;&gt;37 -->
<g id="edge33" class="edge">
<title>36&#45;&gt;37</title>
<path fill="none" stroke="black" d="M245.31,-900C253.51,-900 262.31,-900 271.11,-900"/>
<polygon fill="black" stroke="black" points="271.33,-905.25 286.33,-900 271.33,-894.75 271.33,-905.25"/>
</g>
<!-- 37&#45;&gt;37 -->
<g id="edge34" class="edge">
<title>37&#45;&gt;37</title>
<path fill="none" stroke="black" d="M316.38,-916.29C310.58,-926.39 318.59,-936 340.43,-936 349.98,-936 356.88,-934.16 361.15,-931.25"/>
<polygon fill="black" stroke="black" points="366.34,-932.07 364.48,-916.29 356.09,-929.79 366.34,-932.07"/>
</g>
</g>
</svg>
